<svg width="26" height="26" viewBox="0 0 26 26" fill="none" xmlns="http://www.w3.org/2000/svg">
<path d="M18.3311 22.1976C17.2972 23.253 16.1685 23.0864 15.0819 22.5864C13.9321 22.0754 12.8771 22.0532 11.664 22.5864C10.1449 23.2752 9.34317 23.0752 8.43595 22.1976C3.28795 16.6094 4.04749 8.09936 9.89173 7.78828C11.3159 7.86605 12.3075 8.6104 13.1409 8.67706C14.3857 8.41043 15.5777 7.64386 16.9069 7.74385C18.4998 7.87716 19.7025 8.54374 20.4936 9.74359C17.2023 11.8211 17.9829 16.3872 21 17.6648C20.3987 19.3313 19.6181 20.9866 18.3205 22.2087L18.3311 22.1976ZM13.0354 7.72163C12.8771 5.24416 14.7865 3.19997 16.9808 3C17.2867 5.8663 14.5123 7.99937 13.0354 7.72163Z" fill="white"/>
</svg>
