<svg width="206" height="64" viewBox="0 0 206 64" fill="none" xmlns="http://www.w3.org/2000/svg">
<rect x="0.5" width="205" height="64" rx="32" fill="white"/>
<rect x="35.5" y="17" width="15" height="15" fill="#F15021"/>
<rect x="52.5" y="17" width="15" height="15" fill="#7EB900"/>
<rect x="35.5" y="34" width="15" height="15" fill="#00A3EE"/>
<rect x="52.5" y="34" width="15" height="15" fill="#FFB800"/>
<path d="M92.3336 47.7236H89.6007L89.6007 37.0365C89.6007 36.1612 89.6547 35.0902 89.7628 33.8234H89.7165C89.5466 34.5451 89.3961 35.0633 89.2648 35.3781L84.3085 47.7236H82.4093L77.4414 35.4702C77.3024 35.1094 77.1557 34.5605 77.0013 33.8234H76.955C77.0168 34.4837 77.0477 35.5624 77.0477 37.0595L77.0477 47.7236H74.5L74.5 31.2092H78.3794L82.7451 42.2073C83.0771 43.0518 83.2933 43.6814 83.3936 44.096H83.4515C83.7372 43.2284 83.9688 42.5835 84.1464 42.1612L88.5932 31.2092H92.3336L92.3336 47.7236Z" fill="#0B101F"/>
<path d="M97.0125 33.4549C96.5724 33.4549 96.1942 33.3129 95.8776 33.0288C95.5688 32.7447 95.4144 32.3839 95.4144 31.9463C95.4144 31.5086 95.5688 31.144 95.8776 30.8522C96.1942 30.5605 96.5724 30.4146 97.0125 30.4146C97.468 30.4146 97.854 30.5605 98.1705 30.8522C98.4871 31.144 98.6453 31.5086 98.6453 31.9463C98.6453 32.3608 98.4871 32.7179 98.1705 33.0173C97.854 33.309 97.468 33.4549 97.0125 33.4549ZM98.3442 47.7236H95.6576L95.6576 35.9309H98.3442L98.3442 47.7236Z" fill="#0B101F"/>
<path d="M109.879 47.1823C108.929 47.7274 107.806 48 106.509 48C104.749 48 103.328 47.4549 102.247 46.3647C101.166 45.2668 100.626 43.8464 100.626 42.1036C100.626 40.1612 101.205 38.6027 102.363 37.428C103.529 36.2457 105.084 35.6545 107.03 35.6545C108.111 35.6545 109.064 35.8426 109.89 36.2188L109.89 38.7063C109.064 38.0921 108.184 37.785 107.25 37.785C106.115 37.785 105.185 38.1689 104.459 38.9367C103.733 39.6967 103.371 40.6948 103.371 41.9309C103.371 43.1516 103.71 44.1152 104.39 44.8215C105.077 45.5278 105.995 45.881 107.146 45.881C108.111 45.881 109.022 45.5393 109.879 44.856L109.879 47.1823Z" fill="#0B101F"/>
<path d="M118.958 38.476C118.634 38.2226 118.167 38.096 117.557 38.096C116.762 38.096 116.098 38.453 115.565 39.167C115.032 39.881 114.766 40.8522 114.766 42.0806L114.766 47.7236H112.079L112.079 35.9309H114.766L114.766 38.3608H114.812C115.075 37.5317 115.476 36.8868 116.017 36.4261C116.565 35.9578 117.175 35.7236 117.846 35.7236C118.333 35.7236 118.703 35.7965 118.958 35.9424L118.958 38.476Z" fill="#0B101F"/>
<path d="M125.64 48C123.811 48 122.348 47.4511 121.251 46.3532C120.163 45.2476 119.619 43.785 119.619 41.9655C119.619 39.9846 120.186 38.4376 121.321 37.3244C122.463 36.2111 124 35.6545 125.93 35.6545C127.783 35.6545 129.226 36.1958 130.261 37.2783C131.295 38.3608 131.813 39.8618 131.813 41.7812C131.813 43.6622 131.253 45.1708 130.133 46.3071C129.022 47.4357 127.524 48 125.64 48ZM125.768 37.785C124.718 37.785 123.888 38.1497 123.278 38.8791C122.668 39.6084 122.363 40.6142 122.363 41.8964C122.363 43.1324 122.672 44.1075 123.29 44.8215C123.907 45.5278 124.733 45.881 125.768 45.881C126.825 45.881 127.636 45.5317 128.2 44.833C128.771 44.1344 129.056 43.1401 129.056 41.8503C129.056 40.5528 128.771 39.5509 128.2 38.8445C127.636 38.1382 126.825 37.785 125.768 37.785Z" fill="#0B101F"/>
<path d="M133.342 47.3551L133.342 44.8791C134.345 45.6392 135.453 46.0192 136.665 46.0192C138.286 46.0192 139.097 45.5432 139.097 44.5912C139.097 44.3225 139.028 44.096 138.889 43.9117C138.75 43.7198 138.56 43.5509 138.321 43.405C138.09 43.2591 137.812 43.1286 137.487 43.0134C137.171 42.8983 136.816 42.7678 136.422 42.6219C135.936 42.4299 135.496 42.2265 135.102 42.0115C134.716 41.7965 134.392 41.5547 134.129 41.286C133.874 41.0096 133.681 40.6987 133.55 40.3532C133.419 40.0077 133.353 39.6046 133.353 39.144C133.353 38.5758 133.488 38.0768 133.759 37.6468C134.029 37.2092 134.392 36.8445 134.847 36.5528C135.303 36.2534 135.82 36.0307 136.399 35.8848C136.978 35.7313 137.576 35.6545 138.194 35.6545C139.29 35.6545 140.271 35.8196 141.135 36.1497L141.135 38.4875C140.301 37.9194 139.344 37.6353 138.263 37.6353C137.924 37.6353 137.615 37.6699 137.337 37.739C137.067 37.8081 136.835 37.904 136.642 38.0269C136.449 38.1497 136.298 38.2994 136.19 38.476C136.082 38.6449 136.028 38.833 136.028 39.0403C136.028 39.2937 136.082 39.5086 136.19 39.6852C136.298 39.8618 136.457 40.0192 136.665 40.1574C136.881 40.2879 137.136 40.4107 137.429 40.5259C137.731 40.6334 138.074 40.7524 138.46 40.8829C138.97 41.0902 139.425 41.3013 139.827 41.5163C140.236 41.7313 140.583 41.977 140.869 42.2534C141.154 42.5221 141.374 42.8369 141.529 43.1977C141.683 43.5509 141.76 43.9731 141.76 44.4645C141.76 45.0633 141.622 45.5854 141.344 46.0307C141.066 46.476 140.695 46.8445 140.232 47.1363C139.769 47.428 139.232 47.643 138.622 47.7812C138.02 47.9271 137.383 48 136.712 48C135.415 48 134.291 47.785 133.342 47.3551Z" fill="#0B101F"/>
<path d="M149.103 48C147.273 48 145.81 47.4511 144.714 46.3532C143.625 45.2476 143.081 43.785 143.081 41.9655C143.081 39.9846 143.649 38.4376 144.783 37.3244C145.926 36.2111 147.462 35.6545 149.392 35.6545C151.245 35.6545 152.689 36.1958 153.723 37.2783C154.758 38.3608 155.275 39.8618 155.275 41.7812C155.275 43.6622 154.715 45.1708 153.596 46.3071C152.484 47.4357 150.987 48 149.103 48ZM149.23 37.785C148.18 37.785 147.35 38.1497 146.74 38.8791C146.131 39.6084 145.826 40.6142 145.826 41.8964C145.826 43.1324 146.134 44.1075 146.752 44.8215C147.37 45.5278 148.196 45.881 149.23 45.881C150.288 45.881 151.099 45.5317 151.662 44.833C152.233 44.1344 152.519 43.1401 152.519 41.8503C152.519 40.5528 152.233 39.5509 151.662 38.8445C151.099 38.1382 150.288 37.785 149.23 37.785Z" fill="#0B101F"/>
<path d="M164.25 32.4415C163.887 32.2342 163.474 32.1305 163.011 32.1305C161.706 32.1305 161.054 32.8637 161.054 34.3301L161.054 35.9309H163.81L163.81 38.0269H161.066L161.066 47.7236H158.379L158.379 38.0269H156.353L156.353 35.9309H158.379L158.379 34.0192C158.379 32.7754 158.788 31.7965 159.607 31.0825C160.425 30.3608 161.448 30 162.675 30C163.339 30 163.864 30.0729 164.25 30.2188L164.25 32.4415Z" fill="#0B101F"/>
<path d="M171.5 47.5969C170.975 47.858 170.284 47.9885 169.427 47.9885C167.127 47.9885 165.976 46.8906 165.976 44.6948L165.976 38.0269H163.996L163.996 35.9309H165.976L165.976 33.2015L168.663 32.4415L168.663 35.9309H171.5L171.5 38.0269H168.663L168.663 43.9232C168.663 44.6219 168.79 45.1209 169.045 45.4203C169.3 45.7198 169.724 45.8695 170.319 45.8695C170.774 45.8695 171.168 45.739 171.5 45.4779L171.5 47.5969Z" fill="#0B101F"/>
<path d="M80.4656 25.3756C79.73 25.7919 78.9106 26 78.0075 26C76.9631 26 76.1174 25.6622 75.4705 24.9866C74.8235 24.3109 74.5 23.4169 74.5 22.3045C74.5 21.1683 74.853 20.2367 75.5591 19.5099C76.2685 18.7797 77.1684 18.4146 78.2587 18.4146C79.0436 18.4146 79.7037 18.534 80.239 18.7729L80.239 20.0269C79.6971 19.6515 79.0518 19.4639 78.303 19.4639C77.551 19.4639 76.9335 19.7215 76.4508 20.2367C75.9713 20.752 75.7316 21.4191 75.7316 22.238C75.7316 23.0808 75.9385 23.7445 76.3523 24.229C76.7661 24.7102 77.3276 24.9507 78.037 24.9507C78.5231 24.9507 78.9434 24.8535 79.2981 24.659L79.2981 22.9136H77.8104L77.8104 21.89H80.4656L80.4656 25.3756Z" fill="#0B101F"/>
<path d="M86.2317 23.579H82.7932C82.8063 24.0636 82.9492 24.4372 83.2217 24.6999C83.4976 24.9627 83.8753 25.094 84.3548 25.094C84.8934 25.094 85.3876 24.9268 85.8376 24.5925L85.8376 25.5496C85.3778 25.8499 84.7702 26 84.0149 26C83.2727 26 82.6897 25.7628 82.2661 25.2885C81.8457 24.8108 81.6355 24.1403 81.6355 23.277C81.6355 22.4615 81.867 21.7978 82.3301 21.286C82.7965 20.7707 83.3745 20.5131 84.0641 20.5131C84.7538 20.5131 85.2875 20.7434 85.6651 21.2041C86.0428 21.6647 86.2317 22.3045 86.2317 23.1235L86.2317 23.579ZM85.1282 22.7396C85.1249 22.3131 85.028 21.9821 84.8375 21.7466C84.6471 21.5078 84.3843 21.3884 84.0493 21.3884C83.7209 21.3884 83.4418 21.5129 83.2119 21.762C82.9853 22.0111 82.8457 22.337 82.7932 22.7396H85.1282Z" fill="#0B101F"/>
<path d="M90.0814 25.8209C89.8581 25.9369 89.5641 25.9949 89.1996 25.9949C88.2209 25.9949 87.7316 25.5069 87.7316 24.531L87.7316 21.5675H86.8892L86.8892 20.636H87.7316L87.7316 19.4229L88.8745 19.0851L88.8745 20.636H90.0814L90.0814 21.5675H88.8745L88.8745 24.1881C88.8745 24.4986 88.9287 24.7204 89.037 24.8535C89.1454 24.9866 89.326 25.0531 89.5789 25.0531C89.7727 25.0531 89.9402 24.9951 90.0814 24.8791L90.0814 25.8209Z" fill="#0B101F"/>
<path d="M94.6232 19.5355C94.436 19.5355 94.275 19.4724 94.1404 19.3461C94.009 19.2199 93.9433 19.0595 93.9433 18.865C93.9433 18.6705 94.009 18.5084 94.1404 18.3788C94.275 18.2491 94.436 18.1843 94.6232 18.1843C94.8169 18.1843 94.9811 18.2491 95.1158 18.3788C95.2504 18.5084 95.3177 18.6705 95.3177 18.865C95.3177 19.0493 95.2504 19.2079 95.1158 19.341C94.9811 19.4707 94.8169 19.5355 94.6232 19.5355ZM95.1897 25.8772H94.0468L94.0468 20.636H95.1897L95.1897 25.8772Z" fill="#0B101F"/>
<path d="M99.4483 25.8209C99.225 25.9369 98.931 25.9949 98.5665 25.9949C97.5878 25.9949 97.0985 25.5069 97.0985 24.531L97.0985 21.5675H96.2561L96.2561 20.636H97.0985L97.0985 19.4229L98.2414 19.0851L98.2414 20.636H99.4483L99.4483 21.5675H98.2414L98.2414 24.1881C98.2414 24.4986 98.2955 24.7204 98.4039 24.8535C98.5123 24.9866 98.6929 25.0531 98.9458 25.0531C99.1396 25.0531 99.3071 24.9951 99.4483 24.8791L99.4483 25.8209Z" fill="#0B101F"/>
<path d="M106.266 19.0851C106.112 18.993 105.936 18.9469 105.739 18.9469C105.184 18.9469 104.906 19.2728 104.906 19.9245L104.906 20.636H106.079L106.079 21.5675H104.911L104.911 25.8772H103.768L103.768 21.5675H102.906L102.906 20.636H103.768L103.768 19.7863C103.768 19.2335 103.942 18.7985 104.291 18.4811C104.639 18.1604 105.074 18 105.596 18C105.878 18 106.102 18.0324 106.266 18.0972L106.266 19.0851Z" fill="#0B101F"/>
<path d="M109.919 21.7671C109.781 21.6545 109.582 21.5982 109.323 21.5982C108.984 21.5982 108.702 21.7569 108.475 22.0742C108.249 22.3916 108.135 22.8232 108.135 23.3692L108.135 25.8772H106.992L106.992 20.636H108.135L108.135 21.7159H108.155C108.267 21.3474 108.437 21.0608 108.667 20.856C108.901 20.6479 109.16 20.5438 109.446 20.5438C109.653 20.5438 109.81 20.5762 109.919 20.6411L109.919 21.7671Z" fill="#0B101F"/>
<path d="M113.064 26C112.286 26 111.663 25.756 111.197 25.2681C110.734 24.7767 110.502 24.1267 110.502 23.318C110.502 22.4376 110.744 21.7501 111.226 21.2553C111.712 20.7605 112.366 20.5131 113.187 20.5131C113.975 20.5131 114.589 20.7537 115.029 21.2348C115.47 21.7159 115.69 22.383 115.69 23.2361C115.69 24.0721 115.451 24.7426 114.975 25.2476C114.502 25.7492 113.865 26 113.064 26ZM113.118 21.46C112.671 21.46 112.318 21.6221 112.059 21.9463C111.8 22.2704 111.67 22.7174 111.67 23.2873C111.67 23.8366 111.801 24.27 112.064 24.5873C112.327 24.9013 112.678 25.0582 113.118 25.0582C113.568 25.0582 113.913 24.903 114.153 24.5925C114.396 24.2819 114.517 23.8401 114.517 23.2668C114.517 22.6901 114.396 22.2448 114.153 21.9309C113.913 21.617 113.568 21.46 113.118 21.46Z" fill="#0B101F"/>
<path d="M124.5 25.8772H123.357L123.357 23.0211C123.357 22.4717 123.282 22.0742 123.131 21.8285C122.983 21.5829 122.731 21.46 122.377 21.46C122.078 21.46 121.823 21.6153 121.613 21.9258C121.406 22.2363 121.303 22.6082 121.303 23.0416L121.303 25.8772H120.155L120.155 22.9239C120.155 21.948 119.823 21.46 119.16 21.46C118.851 21.46 118.597 21.6067 118.396 21.9002C118.199 22.1936 118.101 22.5741 118.101 23.0416L118.101 25.8772H116.958L116.958 20.636H118.101L118.101 21.4651H118.121C118.485 20.8305 119.015 20.5131 119.712 20.5131C120.06 20.5131 120.364 20.6138 120.623 20.8151C120.886 21.013 121.065 21.274 121.16 21.5982C121.534 20.8748 122.093 20.5131 122.835 20.5131C123.945 20.5131 124.5 21.2246 124.5 22.6475L124.5 25.8772Z" fill="#0B101F"/>
</svg>
