<svg width="206" height="64" viewBox="0 0 206 64" fill="none" xmlns="http://www.w3.org/2000/svg">
<rect x="0.5" width="205" height="64" rx="32" fill="white"/>
<path d="M54.8863 34.1447C54.9205 31.3656 56.3473 28.7361 58.6107 27.2805C57.1828 25.1473 54.7912 23.7948 52.3029 23.7134C49.649 23.422 47.0761 25.3746 45.7237 25.3746C44.3451 25.3746 42.2629 23.7423 40.0207 23.7906C37.098 23.8894 34.3734 25.6275 32.9515 28.3003C29.8949 33.8359 32.1748 41.9714 35.1028 46.446C36.5677 48.6371 38.2797 51.0846 40.5199 50.9978C42.7121 50.9026 43.5308 49.5355 46.177 49.5355C48.7986 49.5355 49.5667 50.9978 51.8523 50.9426C54.2046 50.9026 55.6867 48.7418 57.1002 46.5299C58.1528 44.9687 58.9627 43.2432 59.5 41.4174C56.7356 40.1944 54.8895 37.2843 54.8863 34.1447Z" fill="#0B101F"/>
<path d="M50.5691 20.7707C51.8516 19.1601 52.4835 17.09 52.3305 15C50.371 15.2153 48.561 16.1949 47.2611 17.7437C45.99 19.2569 45.3285 21.2906 45.4535 23.3007C47.4137 23.3218 49.3408 22.3688 50.5691 20.7707Z" fill="#0B101F"/>
<path d="M134.59 31.0876L134.59 34.4394H132.543L132.543 36.6375H134.59L134.59 44.1063C134.59 46.6565 135.714 47.6767 138.541 47.6767C139.038 47.6767 139.511 47.6159 139.925 47.5431L139.925 45.3693C139.571 45.4057 139.346 45.43 138.955 45.43C137.689 45.43 137.133 44.8228 137.133 43.4383L137.133 36.6375H139.925L139.925 34.4394H137.133L137.133 31.0876H134.59Z" fill="#0B101F"/>
<path d="M147.128 47.8588C150.89 47.8588 153.197 45.2721 153.197 40.9852C153.197 36.7226 150.878 34.1237 147.128 34.1237C143.366 34.1237 141.047 36.7226 141.047 40.9852C141.047 45.2721 143.354 47.8588 147.128 47.8588ZM147.128 45.5393C144.916 45.5393 143.674 43.8755 143.674 40.9852C143.674 38.1191 144.916 36.4432 147.128 36.4432C149.329 36.4432 150.583 38.1191 150.583 40.9852C150.583 43.8634 149.329 45.5393 147.128 45.5393Z" fill="#0B101F"/>
<path d="M155.171 47.6038H157.715L157.715 39.795C157.715 37.937 159.075 36.6861 161.003 36.6861C161.453 36.6861 162.21 36.7711 162.423 36.844L162.423 34.2694C162.151 34.1966 161.666 34.1601 161.287 34.1601C159.607 34.1601 158.176 35.1074 157.809 36.4068H157.62L157.62 34.3787H155.171L155.171 47.6038Z" fill="#0B101F"/>
<path d="M168.739 36.3461C170.62 36.3461 171.85 37.6941 171.909 39.7708H165.402C165.544 37.7062 166.858 36.3461 168.739 36.3461ZM171.897 44.0334C171.424 45.0656 170.371 45.6364 168.833 45.6364C166.798 45.6364 165.485 44.167 165.402 41.8474L165.402 41.7017H174.5L174.5 40.7909C174.5 36.6375 172.335 34.1237 168.75 34.1237C165.118 34.1237 162.812 36.8076 162.812 41.0338C162.812 45.26 165.071 47.8588 168.762 47.8588C171.708 47.8588 173.767 46.4015 174.346 44.0334H171.897Z" fill="#0B101F"/>
<path d="M117.91 42.72C118.106 45.9675 120.742 48.0443 124.666 48.0443C128.86 48.0443 131.484 45.8668 131.484 42.3927C131.484 39.6613 129.988 38.1508 126.358 37.2823L124.409 36.7914C122.103 36.2376 121.171 35.495 121.171 34.1985C121.171 32.5622 122.618 31.4923 124.789 31.4923C126.849 31.4923 128.271 32.537 128.529 34.2111H131.202C131.042 31.1524 128.418 29 124.825 29C120.963 29 118.388 31.1524 118.388 34.3873C118.388 37.0558 119.847 38.6417 123.048 39.4096L125.328 39.976C127.67 40.5424 128.7 41.3732 128.7 42.7577C128.7 44.3689 127.082 45.5395 124.875 45.5395C122.508 45.5395 120.865 44.4444 120.632 42.72H117.91Z" fill="#0B101F"/>
<path d="M91.5614 34.1601C89.8105 34.1601 88.2962 35.0588 87.5154 36.5647H87.3261L87.3261 34.3787H84.8772L84.8772 52H87.4207L87.4207 45.6H87.6218C88.2962 46.9966 89.7513 47.8224 91.585 47.8224C94.8384 47.8224 96.9087 45.1871 96.9087 40.9852C96.9087 36.7833 94.8384 34.1601 91.5614 34.1601ZM90.8397 45.4785C88.7102 45.4785 87.3734 43.7541 87.3734 40.9973C87.3734 38.2284 88.7102 36.504 90.8515 36.504C93.0047 36.504 94.2942 38.192 94.2942 40.9852C94.2942 43.7905 93.0047 45.4785 90.8397 45.4785Z" fill="#0B101F"/>
<path d="M105.809 34.1601C104.058 34.1601 102.544 35.0588 101.763 36.5647H101.574L101.574 34.3787H99.1248L99.1248 52H101.668L101.668 45.6H101.869C102.544 46.9966 103.999 47.8224 105.833 47.8224C109.086 47.8224 111.156 45.1871 111.156 40.9852C111.156 36.7833 109.086 34.1601 105.809 34.1601ZM105.087 45.4785C102.958 45.4785 101.621 43.7541 101.621 40.9973C101.621 38.2284 102.958 36.504 105.099 36.504C107.252 36.504 108.542 38.192 108.542 40.9852C108.542 43.7905 107.252 45.4785 105.087 45.4785Z" fill="#0B101F"/>
<path d="M80.3136 47.6038H83.232L76.8435 29.4405H73.8884L67.5 47.6038H70.3202L71.9511 42.7829H78.6951L80.3136 47.6038ZM75.225 32.7384H75.4334L77.9962 40.4165H72.65L75.225 32.7384Z" fill="#0B101F"/>
<path d="M67.5 16.37L67.5 23.8906H70.0329C72.1233 23.8906 73.3338 22.5094 73.3338 20.1068C73.3338 17.7407 72.1136 16.37 70.0329 16.37H67.5ZM68.589 17.4332H69.9113C71.3649 17.4332 72.2254 18.4235 72.2254 20.1225C72.2254 21.8476 71.3795 22.8274 69.9113 22.8274H68.589L68.589 17.4332Z" fill="#0B101F"/>
<path d="M77.0413 24C78.5872 24 79.5352 22.8899 79.5352 21.0502C79.5352 19.2208 78.5824 18.1055 77.0413 18.1055C75.4953 18.1055 74.5424 19.2208 74.5424 21.0502C74.5424 22.8899 75.4904 24 77.0413 24ZM77.0413 23.0046C76.1321 23.0046 75.6217 22.2906 75.6217 21.0502C75.6217 19.8202 76.1321 19.101 77.0413 19.101C77.9455 19.101 78.4608 19.8202 78.4608 21.0502C78.4608 22.2853 77.9455 23.0046 77.0413 23.0046Z" fill="#0B101F"/>
<path d="M87.6083 18.215H86.5631L85.6199 22.5459H85.5373L84.4483 18.215H83.4468L82.3578 22.5459H82.28L81.332 18.215H80.2722L81.7307 23.8906H82.8051L83.8941 19.7107H83.9767L85.0706 23.8906H86.1547L87.6083 18.215Z" fill="#0B101F"/>
<path d="M88.812 23.8906H89.8572L89.8572 20.5707C89.8572 19.6847 90.3482 19.1322 91.1212 19.1322C91.8942 19.1322 92.2637 19.5857 92.2637 20.4977L92.2637 23.8906H93.3089L93.3089 20.2163C93.3089 18.8664 92.6575 18.1055 91.4761 18.1055C90.6788 18.1055 90.1538 18.486 89.8961 19.1166H89.8183L89.8183 18.215H88.812L88.812 23.8906Z" fill="#0B101F"/>
<path d="M94.955 23.8906H96.0003L96.0003 16H94.955L94.955 23.8906Z" fill="#0B101F"/>
<path d="M99.9313 24C101.477 24 102.425 22.8899 102.425 21.0502C102.425 19.2208 101.472 18.1055 99.9313 18.1055C98.3853 18.1055 97.4325 19.2208 97.4325 21.0502C97.4325 22.8899 98.3805 24 99.9313 24ZM99.9313 23.0046C99.0222 23.0046 98.5117 22.2906 98.5117 21.0502C98.5117 19.8202 99.0222 19.101 99.9313 19.101C100.836 19.101 101.351 19.8202 101.351 21.0502C101.351 22.2853 100.836 23.0046 99.9313 23.0046Z" fill="#0B101F"/>
<path d="M105.54 23.041C104.971 23.041 104.558 22.744 104.558 22.2332C104.558 21.7329 104.888 21.4671 105.617 21.415L106.911 21.3264L106.911 21.8007C106.911 22.5042 106.327 23.041 105.54 23.041ZM105.272 23.9844C105.967 23.9844 106.546 23.6612 106.862 23.0932H106.945L106.945 23.8906H107.951L107.951 20.013C107.951 18.8143 107.202 18.1055 105.875 18.1055C104.674 18.1055 103.819 18.7309 103.712 19.7055H104.723C104.84 19.3042 105.243 19.0749 105.826 19.0749C106.541 19.0749 106.911 19.4137 106.911 20.013L106.911 20.5029L105.476 20.5915C104.217 20.6749 103.507 21.2638 103.507 22.2853C103.507 23.3225 104.251 23.9844 105.272 23.9844Z" fill="#0B101F"/>
<path d="M111.498 23.9844C112.227 23.9844 112.845 23.6143 113.161 22.9941H113.243L113.243 23.8906H114.245L114.245 16H113.199L113.199 19.1166H113.122C112.835 18.4912 112.222 18.1212 111.498 18.1212C110.161 18.1212 109.3 19.2573 109.3 21.0502C109.3 22.8482 110.151 23.9844 111.498 23.9844ZM111.794 19.127C112.67 19.127 113.219 19.8723 113.219 21.0554C113.219 22.2436 112.674 22.9785 111.794 22.9785C110.91 22.9785 110.38 22.2541 110.38 21.0502C110.38 19.8567 110.914 19.127 111.794 19.127Z" fill="#0B101F"/>
<path d="M121.023 24C122.569 24 123.517 22.8899 123.517 21.0502C123.517 19.2208 122.564 18.1055 121.023 18.1055C119.477 18.1055 118.524 19.2208 118.524 21.0502C118.524 22.8899 119.472 24 121.023 24ZM121.023 23.0046C120.113 23.0046 119.603 22.2906 119.603 21.0502C119.603 19.8202 120.113 19.101 121.023 19.101C121.927 19.101 122.442 19.8202 122.442 21.0502C122.442 22.2853 121.927 23.0046 121.023 23.0046Z" fill="#0B101F"/>
<path d="M124.9 23.8906H125.945L125.945 20.5707C125.945 19.6847 126.436 19.1322 127.209 19.1322C127.982 19.1322 128.352 19.5857 128.352 20.4977L128.352 23.8906H129.397L129.397 20.2163C129.397 18.8664 128.746 18.1055 127.564 18.1055C126.767 18.1055 126.242 18.486 125.984 19.1166H125.907L125.907 18.215H124.9L124.9 23.8906Z" fill="#0B101F"/>
<path d="M134.211 16.8026L134.211 18.241H133.37L133.37 19.1844H134.211L134.211 22.3896C134.211 23.484 134.673 23.9218 135.835 23.9218C136.039 23.9218 136.233 23.8958 136.404 23.8645L136.404 22.9316C136.258 22.9472 136.165 22.9577 136.005 22.9577C135.485 22.9577 135.256 22.6971 135.256 22.1029L135.256 19.1844H136.404L136.404 18.241H135.256L135.256 16.8026H134.211Z" fill="#0B101F"/>
<path d="M137.807 23.8906H138.852L138.852 20.5759C138.852 19.716 139.328 19.1375 140.184 19.1375C140.923 19.1375 141.317 19.5961 141.317 20.5029L141.317 23.8906H142.362L142.362 20.2267C142.362 18.8769 141.667 18.1107 140.539 18.1107C139.741 18.1107 139.182 18.4912 138.925 19.127H138.842L138.842 16H137.807L137.807 23.8906Z" fill="#0B101F"/>
<path d="M146.132 19.0593C146.905 19.0593 147.411 19.6378 147.435 20.529H144.761C144.82 19.643 145.359 19.0593 146.132 19.0593ZM147.43 22.3583C147.236 22.8013 146.803 23.0463 146.171 23.0463C145.335 23.0463 144.796 22.4156 144.761 21.4202L144.761 21.3577H148.5L148.5 20.9668C148.5 19.1844 147.61 18.1055 146.137 18.1055C144.645 18.1055 143.697 19.2573 143.697 21.071C143.697 22.8847 144.625 24 146.142 24C147.353 24 148.199 23.3746 148.437 22.3583H147.43Z" fill="#0B101F"/>
</svg>
