<svg width="34" height="34" viewBox="0 0 34 34" fill="none" xmlns="http://www.w3.org/2000/svg">
<g opacity="0.4">
<path d="M31.3885 13.9361C31.5129 14.0596 31.514 14.257 31.5164 14.6517C31.5208 15.3649 31.5208 16.1198 31.5208 16.919V17.081C31.5208 20.1845 31.5208 22.6222 31.265 24.5253C31.0028 26.4755 30.4545 28.0229 29.2387 29.2387C28.0229 30.4545 26.4755 31.0028 24.5253 31.265C22.6222 31.5208 20.1845 31.5208 17.081 31.5208H16.919C16.1198 31.5208 15.3649 31.5208 14.6517 31.5164C14.257 31.514 14.0596 31.5129 13.9361 31.3885C13.8125 31.2643 13.8125 31.0659 13.8125 30.6694V14.6625C13.8125 14.2619 13.8125 14.0615 13.937 13.937C14.0615 13.8125 14.2619 13.8125 14.6625 13.8125H30.6694C31.0659 13.8125 31.2643 13.8125 31.3885 13.9361Z" fill="#AC50E5"/>
<path d="M10.8368 13.8125C11.2375 13.8125 11.4379 13.8125 11.5624 13.937C11.6868 14.0615 11.6868 14.2619 11.6868 14.6625V30.5605C11.6868 30.9812 11.6868 31.1916 11.5512 31.3177C11.4156 31.4438 11.2096 31.4286 10.7977 31.3986C10.3301 31.3644 9.88935 31.3208 9.47404 31.265C7.52379 31.0028 5.97642 30.4545 4.76064 29.2387C3.54487 28.0229 2.99656 26.4755 2.73435 24.5253C2.47849 22.6222 2.4785 20.1845 2.47852 17.081V16.919C2.47852 16.12 2.4785 15.3647 2.48286 14.6517C2.48529 14.257 2.48649 14.0596 2.61082 13.9361C2.73513 13.8125 2.93338 13.8125 3.32988 13.8125H10.8368Z" fill="#AC50E5"/>
</g>
<path fill-rule="evenodd" clip-rule="evenodd" d="M17.3535 18.4165C17.3535 17.8297 17.8292 17.354 18.416 17.354H24.0827C24.6695 17.354 25.1452 17.8297 25.1452 18.4165C25.1452 19.0033 24.6695 19.479 24.0827 19.479H18.416C17.8292 19.479 17.3535 19.0033 17.3535 18.4165Z" fill="#AC50E5"/>
<path fill-rule="evenodd" clip-rule="evenodd" d="M17.3535 24.0835C17.3535 23.4967 17.8292 23.021 18.416 23.021H21.2493C21.8361 23.021 22.3118 23.4967 22.3118 24.0835C22.3118 24.6703 21.8361 25.146 21.2493 25.146H18.416C17.8292 25.146 17.3535 24.6703 17.3535 24.0835Z" fill="#AC50E5"/>
<path fill-rule="evenodd" clip-rule="evenodd" d="M16.9204 2.479H17.0825C20.186 2.47899 22.6237 2.47898 24.5268 2.73484C26.477 2.99705 28.0244 3.54536 29.2402 4.76113C30.456 5.97691 31.0042 7.52428 31.2665 9.47453C31.3223 9.88984 31.3659 10.3306 31.4001 10.7982C31.4301 11.2101 31.4452 11.4161 31.3192 11.5517C31.1931 11.6873 30.9827 11.6873 30.562 11.6873H3.44105C3.02031 11.6873 2.80995 11.6873 2.68386 11.5517C2.55778 11.4161 2.57281 11.2101 2.60287 10.7982C2.637 10.3306 2.68065 9.88984 2.73648 9.47453C2.99869 7.52428 3.547 5.97691 4.76277 4.76113C5.97855 3.54536 7.52592 2.99705 9.47617 2.73484C11.3794 2.47898 13.817 2.47899 16.9204 2.479ZM8.50049 7.08317C8.50049 6.30077 9.13191 5.6665 9.91082 5.6665H9.92348C10.7024 5.6665 11.3338 6.30077 11.3338 7.08317C11.3338 7.86558 10.7024 8.49984 9.92348 8.49984H9.91082C9.13191 8.49984 8.50049 7.86558 8.50049 7.08317ZM15.5774 5.6665C14.7986 5.6665 14.1672 6.30077 14.1672 7.08317C14.1672 7.86558 14.7986 8.49984 15.5774 8.49984H15.5902C16.3691 8.49984 17.0005 7.86558 17.0005 7.08317C17.0005 6.30077 16.3691 5.6665 15.5902 5.6665H15.5774Z" fill="#AC50E5"/>
</svg>
