<svg width="34" height="34" viewBox="0 0 34 34" fill="none" xmlns="http://www.w3.org/2000/svg">
<path opacity="0.4" d="M22.7444 11.6875C24.6819 11.6875 26.2435 11.6874 27.4717 11.8526C28.7469 12.024 29.8204 12.3908 30.6732 13.2435C31.5259 14.0962 31.8927 15.1698 32.0641 16.4451C32.2292 17.6732 32.2292 19.2348 32.2292 21.1722V22.7444C32.2292 24.6819 32.2292 26.2435 32.0641 27.4717C31.8927 28.7469 31.5259 29.8204 30.6732 30.6732C29.8204 31.5259 28.7469 31.8927 27.4717 32.0641C26.2435 32.2292 24.6819 32.2292 22.7444 32.2292H21.1722C19.2348 32.2292 17.6732 32.2292 16.445 32.0641C15.1698 31.8927 14.0962 31.5259 13.2435 30.6731C12.3908 29.8204 12.024 28.7469 11.8526 27.4717C11.6874 26.2435 11.6875 24.6819 11.6875 22.7444V21.1722C11.6875 19.2348 11.6874 17.6732 11.8526 16.445C12.024 15.1698 12.3908 14.0962 13.2435 13.2435C14.0962 12.3908 15.1698 12.024 16.4451 11.8526C17.6732 11.6874 19.2348 11.6875 21.1722 11.6875H22.7444Z" fill="#7F9DFB"/>
<path d="M9.56315 21.0474C9.56302 19.214 9.56291 17.5325 9.74718 16.1621C9.95018 14.652 10.4278 13.0548 11.7415 11.7411C13.0553 10.4273 14.6525 9.9497 16.1625 9.74669C17.533 9.56242 19.2145 9.56253 21.0479 9.56266H24.2159C24.6352 9.56266 24.8449 9.56266 24.971 9.42693C25.097 9.2912 25.082 9.08695 25.052 8.67844C25.0258 8.32373 24.9923 7.98863 24.9497 7.67204C24.7665 6.31267 24.4002 5.18304 23.619 4.23122C23.3394 3.8905 23.027 3.57807 22.6863 3.29845C21.6819 2.4742 20.4796 2.11178 19.0191 1.93913C17.5964 1.77097 15.7982 1.77098 13.5283 1.771H13.3897C11.1198 1.77098 9.32157 1.77097 7.89892 1.93913C6.43838 2.11176 5.23606 2.4742 4.23171 3.29845C3.89099 3.57807 3.57856 3.8905 3.29893 4.23122C2.47469 5.23557 2.11226 6.43789 1.93961 7.89843C1.77146 9.32108 1.77147 11.1193 1.77148 13.3892V13.5278C1.77147 15.7977 1.77146 17.5959 1.93961 19.0185C2.11225 20.4791 2.47469 21.6814 3.29893 22.6858C3.57856 23.0265 3.89099 23.3389 4.23171 23.6185C5.18353 24.3997 6.31316 24.766 7.67252 24.9492C7.98912 24.9919 8.32422 25.0253 8.67892 25.0515C9.08743 25.0815 9.29169 25.0966 9.42742 24.9705C9.56315 24.8444 9.56315 24.6347 9.56315 24.2154V21.0474Z" fill="#7F9DFB"/>
</svg>
