<svg width="34" height="34" viewBox="0 0 34 34" fill="none" xmlns="http://www.w3.org/2000/svg">
<path d="M26.3888 19.2019C27.384 18.6273 28.6102 18.6273 29.6056 19.2019C29.9762 19.416 30.3928 19.8334 30.7797 20.221C31.1675 20.608 31.5848 21.0245 31.7987 21.3951C32.3733 22.3904 32.3733 23.6167 31.7987 24.6121C31.5848 24.9827 31.2522 25.3146 30.8644 25.7015L26.0935 30.4722C25.4344 31.1314 24.6383 31.4394 23.9232 31.622C23.5662 31.7131 22.2279 31.9586 21.9025 32.0148C21.469 32.1078 21.0352 32.2006 20.6765 32.2234C20.2812 32.2486 19.7083 32.2098 19.2496 31.7511C18.7909 31.2925 18.7522 30.7194 18.7773 30.3242C18.8001 29.9655 18.893 29.5317 18.9858 29.0982C19.0421 28.7728 19.2876 27.4345 19.3787 27.0775C19.5613 26.3623 19.8694 25.5663 20.5286 24.9071L25.2993 20.1362C25.6862 19.7485 26.0182 19.416 26.3888 19.2019Z" fill="#FF6610"/>
<path opacity="0.4" d="M30.6568 11.8091C30.7807 11.9307 30.7844 12.124 30.7918 12.5105C30.8132 13.6237 30.8132 14.8533 30.8132 16.2101V16.3726C30.8132 16.6852 30.8132 16.8415 30.7724 16.9279C30.7027 17.0751 30.5972 17.1503 30.4353 17.1684C30.3404 17.1789 30.1715 17.121 29.8337 17.005C28.3601 16.4988 26.6687 16.5862 25.326 17.3614C24.7043 17.7202 24.1926 18.2349 23.8587 18.5708L23.795 18.6348L19.0258 23.4042C17.9844 24.4456 17.5473 25.6592 17.3195 26.5515C17.2082 26.9879 16.965 28.3183 16.8992 28.6923L16.8943 28.7155C16.8117 29.1005 16.6894 29.6693 16.6564 30.189C16.6439 30.3855 16.6377 30.4837 16.6114 30.5481C16.5618 30.6694 16.4775 30.7485 16.3534 30.7901C16.2874 30.8124 16.2029 30.8124 16.0341 30.8122C13.1702 30.8112 10.5421 30.7951 8.76701 30.5565C6.81676 30.2943 5.26939 29.746 4.05361 28.5302C2.83784 27.3145 2.28953 25.767 2.02732 23.8169C1.77146 21.9136 1.77147 19.4761 1.77149 16.3726V16.2105C1.77147 14.8535 1.77147 13.6238 1.79285 12.5105C1.80027 12.124 1.80398 11.9307 1.92796 11.8091C2.05191 11.6875 2.24692 11.6875 2.63693 11.6875H29.9477C30.3377 11.6875 30.5327 11.6875 30.6568 11.8091Z" fill="#FF6610"/>
<path d="M16.212 1.771H16.3739C19.4774 1.77098 21.9151 1.77097 23.8182 2.02683C25.7686 2.28904 27.3159 2.83735 28.5316 4.05312C29.7474 5.2689 30.2958 6.81627 30.5579 8.76653C30.5981 9.06495 30.6181 9.21415 30.5565 9.33326C30.5257 9.39268 30.4779 9.44742 30.423 9.48584C30.3132 9.56283 30.1575 9.56283 29.8464 9.56283H2.73951C2.42833 9.56283 2.27274 9.56283 2.16291 9.48584C2.10811 9.44742 2.06024 9.39268 2.02947 9.33326C1.96779 9.21415 1.98785 9.06495 2.02797 8.76653C2.29018 6.81627 2.83849 5.2689 4.05426 4.05312C5.27004 2.83735 6.81741 2.28904 8.76766 2.02683C10.6708 1.77097 13.1085 1.77098 16.212 1.771Z" fill="#FF6610"/>
<path fill-rule="evenodd" clip-rule="evenodd" d="M7.4375 17C7.4375 16.4132 7.9132 15.9375 8.5 15.9375H9.91667C10.5035 15.9375 10.9792 16.4132 10.9792 17C10.9792 17.5868 10.5035 18.0625 9.91667 18.0625H8.5C7.9132 18.0625 7.4375 17.5868 7.4375 17ZM13.1042 17C13.1042 16.4132 13.5799 15.9375 14.1667 15.9375H21.25C21.8368 15.9375 22.3125 16.4132 22.3125 17C22.3125 17.5868 21.8368 18.0625 21.25 18.0625H14.1667C13.5799 18.0625 13.1042 17.5868 13.1042 17ZM7.4375 22.6667C7.4375 22.0799 7.9132 21.6042 8.5 21.6042H9.91667C10.5035 21.6042 10.9792 22.0799 10.9792 22.6667C10.9792 23.2534 10.5035 23.7292 9.91667 23.7292H8.5C7.9132 23.7292 7.4375 23.2534 7.4375 22.6667ZM13.1042 22.6667C13.1042 22.0799 13.5799 21.6042 14.1667 21.6042H16.2917C16.8784 21.6042 17.3542 22.0799 17.3542 22.6667C17.3542 23.2534 16.8784 23.7292 16.2917 23.7292H14.1667C13.5799 23.7292 13.1042 23.2534 13.1042 22.6667Z" fill="#FF6610"/>
</svg>
