<svg width="34" height="34" viewBox="0 0 34 34" fill="none" xmlns="http://www.w3.org/2000/svg">
<path opacity="0.4" d="M23.0358 29.3959C25.5532 29.3759 27.7323 27.626 28.2512 25.1702L28.8169 22.3814C28.8577 22.1806 28.8781 22.0802 28.9383 22.002C28.9985 21.9238 29.0903 21.8786 29.2741 21.7879L29.8154 21.521C30.1283 21.3669 30.4556 21.2057 30.707 21.0341C30.9945 20.8381 31.3499 20.5196 31.4767 19.9896C31.604 19.4578 31.4298 19.0125 31.2598 18.7072C31.112 18.4418 30.8916 18.1521 30.6819 17.8767L27.6666 13.9026C27.5874 13.7982 27.5527 13.3468 27.5452 13.1341C27.0121 6.75847 21.6028 1.771 15.0334 1.771C8.11352 1.771 2.47852 7.30689 2.47852 14.1668C2.47852 18.2298 4.45849 21.8313 7.50642 24.0887C7.66024 24.2026 7.81678 24.3134 7.97593 24.4204C8.64634 24.8709 9.36336 25.2592 10.1184 25.5765C10.6593 25.804 10.9674 26.399 10.7865 26.9572C10.6055 27.5154 10.0045 27.8249 9.46084 27.6041C9.24644 27.5171 9.03459 27.4251 8.82544 27.3285C8.20746 27.0429 7.89847 26.9001 7.70245 27.0255C7.50642 27.1509 7.50642 27.476 7.50642 28.1262V28.3968C7.50634 29.0101 7.50628 29.5722 7.56776 30.0295C7.63547 30.5332 7.79477 31.0654 8.23255 31.5031C8.67034 31.941 9.20261 32.1003 9.70621 32.168C10.1635 32.2295 10.7257 32.2295 11.3389 32.2293H20.0977C21.4577 32.2293 22.5603 31.1269 22.5603 29.7667C22.5476 29.6526 22.6248 29.4185 23.0358 29.3959Z" fill="#89DF9A"/>
<path fill-rule="evenodd" clip-rule="evenodd" d="M19.0253 12.0563C18.6422 12.5008 18.6919 13.1717 19.1365 13.5548L20.4397 14.6781C20.5264 14.7527 20.601 14.8172 20.6669 14.875C20.601 14.9328 20.5264 14.9973 20.4397 15.0719L19.1365 16.1952C18.6919 16.5783 18.6422 17.2492 19.0253 17.6937C19.4085 18.1382 20.0794 18.1879 20.5238 17.8048L21.827 16.6815C21.84 16.6703 21.8532 16.659 21.8664 16.6477C22.1055 16.4417 22.3595 16.223 22.5453 16.013C22.7553 15.7759 23.0176 15.3993 23.0176 14.875C23.0176 14.3508 22.7553 13.9742 22.5453 13.737C22.3595 13.5271 22.1055 13.3083 21.8664 13.1024C21.8532 13.0911 21.84 13.0797 21.827 13.0685L20.5238 11.9452C20.0794 11.5621 19.4085 11.6119 19.0253 12.0563Z" fill="#1AC33B"/>
<path fill-rule="evenodd" clip-rule="evenodd" d="M10.7187 12.0563C11.1019 12.5008 11.0521 13.1717 10.6076 13.5548L9.30442 14.6781C9.21775 14.7527 9.14303 14.8172 9.07713 14.875C9.14303 14.9328 9.21775 14.9973 9.30442 15.0719L10.6076 16.1952C11.0521 16.5783 11.1019 17.2492 10.7187 17.6937C10.3356 18.1382 9.66473 18.1879 9.22025 17.8048L7.91705 16.6815C7.90399 16.6703 7.89087 16.659 7.87769 16.6477C7.6386 16.4417 7.38457 16.223 7.1988 16.013C6.98878 15.7759 6.72644 15.3993 6.72644 14.875C6.72644 14.3508 6.98878 13.9742 7.1988 13.737C7.38457 13.5271 7.6386 13.3083 7.87769 13.1024C7.89087 13.0911 7.90399 13.0797 7.91705 13.0685L9.22025 11.9452C9.66473 11.5621 10.3356 11.6119 10.7187 12.0563Z" fill="#1AC33B"/>
<path fill-rule="evenodd" clip-rule="evenodd" d="M16.6833 10.3473C17.2282 10.5652 17.4931 11.1835 17.2752 11.7284L14.4419 18.8117C14.224 19.3565 13.6056 19.6216 13.0608 19.4037C12.5159 19.1857 12.2509 18.5673 12.4689 18.0226L15.3022 10.9392C15.5201 10.3943 16.1385 10.1293 16.6833 10.3473Z" fill="#1AC33B"/>
</svg>
