<svg width="34" height="34" viewBox="0 0 34 34" fill="none" xmlns="http://www.w3.org/2000/svg">
<path d="M19.784 1.77101H21.2982C21.5888 1.7709 21.903 1.77077 22.1682 1.80643C22.4789 1.8482 22.8758 1.95563 23.2099 2.28968C23.5439 2.62373 23.6513 3.02066 23.6931 3.33138C23.7288 3.5966 23.7287 3.91081 23.7285 4.20139V5.71565C23.7287 6.00623 23.7288 6.32044 23.6931 6.58566C23.6513 6.89637 23.5439 7.2933 23.2099 7.62735C22.8758 7.9614 22.4789 8.06884 22.1682 8.11061C21.903 8.14628 21.5888 8.14615 21.2982 8.14604H19.784C19.4934 8.14615 19.1792 8.14628 18.9139 8.11061C18.6032 8.06884 18.2062 7.9614 17.8722 7.62735C17.5381 7.2933 17.4307 6.89637 17.3889 6.58566C17.3532 6.32044 17.3534 6.00623 17.3535 5.71565V4.20139C17.3534 3.91081 17.3532 3.5966 17.3889 3.33138C17.4307 3.02066 17.5381 2.62373 17.8722 2.28968C18.2062 1.95563 18.6032 1.8482 18.9139 1.80643C19.1792 1.77077 19.4934 1.7709 19.784 1.77101Z" fill="#4F4AE8"/>
<path opacity="0.4" d="M31.8214 16.5525C32.0105 16.8 32.2328 17.1809 32.2298 17.6568C32.2223 18.8121 31.4342 19.602 30.6698 20.1021C29.8845 20.6156 28.8756 20.9952 27.8947 21.2876C26.8998 21.5843 25.8564 21.8134 24.9664 21.9979C24.3462 22.1242 23.2448 22.3495 22.9288 22.4382C22.4079 22.5842 22.3025 22.6787 22.2684 22.7156C22.2293 22.7576 22.1375 22.884 22.0155 23.4388L22.0108 23.4602C21.4396 26.0578 20.9907 28.0995 20.5104 29.4909C20.2705 30.1861 19.9922 30.8144 19.6267 31.2887C19.2414 31.7889 18.6931 32.1953 17.9558 32.2279C17.4701 32.2493 17.0801 32.0277 16.8338 31.8448C16.5713 31.6498 16.3323 31.3945 16.1188 31.1279C15.6891 30.5911 15.2451 29.8583 14.8095 29.0258C13.9325 27.3498 13.0075 25.1103 12.2262 22.8116C11.4453 20.5142 10.7921 18.1108 10.4765 16.1057C10.3193 15.1066 10.2393 14.1662 10.2836 13.3689C10.325 12.6256 10.4839 11.773 11.0275 11.1877C11.5882 10.5838 12.4422 10.3789 13.1894 10.3069C13.9869 10.23 14.9301 10.2818 15.9306 10.413C17.9392 10.6765 20.356 11.2846 22.6702 12.0295C24.9863 12.775 27.2488 13.6735 28.9492 14.5378C29.7941 14.9672 30.539 15.4077 31.088 15.8378C31.361 16.0516 31.6209 16.2903 31.8214 16.5525Z" fill="#4F4AE8"/>
<path d="M4.20187 1.77101L4.25068 1.77102H5.66734L5.71613 1.77101C6.00672 1.7709 6.32092 1.77077 6.58615 1.80643C6.89686 1.8482 7.29379 1.95563 7.62784 2.28968C7.96189 2.62373 8.06933 3.02066 8.11109 3.33138C8.14677 3.5966 8.14664 3.91081 8.14653 4.20139V5.71565C8.14664 6.00623 8.14677 6.32044 8.11109 6.58566C8.06933 6.89637 7.96189 7.2933 7.62784 7.62735C7.29379 7.9614 6.89686 8.06884 6.58615 8.11061C6.32092 8.14628 6.00672 8.14615 5.71613 8.14604L5.66734 8.14602H4.25068L4.20187 8.14604C3.9113 8.14615 3.59708 8.14628 3.33187 8.11061C3.02115 8.06884 2.62422 7.9614 2.29017 7.62735C1.95612 7.2933 1.84869 6.89637 1.80691 6.58566C1.77126 6.32044 1.77138 6.00623 1.7715 5.71565V4.20139C1.77138 3.91081 1.77126 3.5966 1.80691 3.33138C1.84869 3.02066 1.95612 2.62373 2.29017 2.28968C2.62422 1.95563 3.02115 1.8482 3.33187 1.80643C3.59708 1.77077 3.9113 1.7709 4.20187 1.77101Z" fill="#4F4AE8"/>
<path d="M4.20187 17.354H4.25068H5.66734H5.71613C6.00672 17.3539 6.32092 17.3537 6.58615 17.3894C6.89686 17.4312 7.29379 17.5386 7.62784 17.8727C7.96189 18.2067 8.06933 18.6037 8.11109 18.9143C8.14677 19.1797 8.14664 19.4939 8.14653 19.7845V21.2987C8.14664 21.5893 8.14677 21.9035 8.11109 22.1687C8.06933 22.4794 7.96189 22.8763 7.62784 23.2104C7.29379 23.5444 6.89686 23.6518 6.58615 23.6936C6.32092 23.7293 6.00672 23.7292 5.71613 23.729H5.66734H4.25068H4.20187C3.9113 23.7292 3.59708 23.7293 3.33187 23.6936C3.02115 23.6518 2.62422 23.5444 2.29017 23.2104C1.95612 22.8763 1.84869 22.4794 1.80691 22.1687C1.77126 21.9035 1.77138 21.5893 1.7715 21.2987V19.7845C1.77138 19.4939 1.77126 19.1797 1.80691 18.9143C1.84869 18.6037 1.95612 18.2067 2.29017 17.8727C2.62422 17.5386 3.02115 17.4312 3.33187 17.3894C3.59708 17.3537 3.9113 17.3539 4.20187 17.354Z" fill="#4F4AE8"/>
<path fill-rule="evenodd" clip-rule="evenodd" d="M19.8327 4.95817C19.8327 4.17577 19.1984 3.5415 18.416 3.5415H7.08268C6.30027 3.5415 5.66602 4.17577 5.66602 4.95817C5.66602 5.74057 6.30027 6.37484 7.08268 6.37484H18.416C19.1984 6.37484 19.8327 5.74057 19.8327 4.95817ZM4.95768 5.6665C4.17527 5.6665 3.54102 6.30077 3.54102 7.08317V18.4165C3.54102 19.1989 4.17527 19.8332 4.95768 19.8332C5.74009 19.8332 6.37435 19.1989 6.37435 18.4165V7.08317C6.37435 6.30077 5.74009 5.6665 4.95768 5.6665Z" fill="#4F4AE8"/>
</svg>
