<svg width="34" height="34" viewBox="0 0 34 34" fill="none" xmlns="http://www.w3.org/2000/svg">
<path opacity="0.4" d="M15.335 2.38447C15.4503 2.38806 15.5081 2.38987 15.5327 2.49153C15.5574 2.59319 15.4943 2.62551 15.3683 2.69015C15.0757 2.84018 14.724 3.06335 14.4058 3.38589C13.8746 3.92422 13.642 4.49923 13.5279 4.86406C13.4435 5.13365 13.3822 5.44592 13.3539 5.59016L13.3492 5.61444C12.3117 10.864 14.6242 16.2308 20.4977 18.282C20.9515 18.4408 21.6927 18.7004 22.6685 18.7003C23.6441 18.7003 24.3853 18.4408 24.8391 18.282C25.2217 18.1483 25.4131 18.0815 25.5447 18.117C25.6419 18.1432 25.7162 18.1931 25.7749 18.2718C25.8548 18.3785 25.8548 18.5637 25.8548 18.9343V21.1556C25.8548 23.3352 25.8548 25.0746 25.6637 26.4388C25.4664 27.8482 25.0478 29.0088 24.0914 29.927C23.1348 30.8451 21.9259 31.247 20.4579 31.4366C19.0369 31.6199 17.2249 31.6199 14.9546 31.6199H14.7966C12.5263 31.6199 10.7145 31.6199 9.29343 31.4366C7.8254 31.247 6.6164 30.8451 5.65995 29.927C4.7035 29.0088 4.28486 27.8482 4.08749 26.4388C3.89644 25.0746 3.89646 23.3352 3.89649 21.1558V12.844C3.89646 10.6645 3.89644 8.92514 4.08749 7.56097C4.28486 6.15164 4.7035 4.991 5.65994 4.07281C6.61639 3.15462 7.8254 2.75273 9.29343 2.56325C10.7145 2.37984 12.5263 2.37986 14.7966 2.37988C15.0098 2.37988 15.1876 2.37988 15.335 2.38447Z" fill="#DE4C9A"/>
<path fill-rule="evenodd" clip-rule="evenodd" d="M12.043 26.5199C12.043 25.7688 12.6772 25.1599 13.4596 25.1599H16.293C17.0754 25.1599 17.7097 25.7688 17.7097 26.5199C17.7097 27.271 17.0754 27.8799 16.293 27.8799H13.4596C12.6772 27.8799 12.043 27.271 12.043 26.5199Z" fill="#DE4C9A"/>
<path d="M19.5823 3.15882C20.4126 2.76654 21.4173 2.37988 22.6654 2.37988C23.9135 2.37988 24.9186 2.76653 25.7492 3.15877C26.0248 3.28892 26.2667 3.41061 26.4889 3.52235C26.9899 3.77447 27.3904 3.97595 27.8506 4.10975C28.1394 4.19376 28.4323 4.27891 28.637 4.35202C28.8152 4.41572 29.1372 4.53676 29.3851 4.78806C29.6047 5.01053 29.7097 5.25517 29.7707 5.45044C29.8217 5.61342 29.8651 5.83294 29.8969 5.9943C30.7754 10.4366 28.8422 14.7126 24.112 16.3644C23.6769 16.5164 23.2664 16.6599 22.6677 16.6599C22.0689 16.6599 21.6583 16.5164 21.2233 16.3644C16.4932 14.7128 14.5578 10.437 15.4362 5.99437C15.4679 5.83302 15.5113 5.61354 15.5623 5.45056C15.6233 5.2553 15.7283 5.01069 15.9479 4.78824C16.1958 4.53692 16.5177 4.41583 16.696 4.35213C16.9006 4.27899 17.1936 4.19378 17.4824 4.10973C17.9421 3.97597 18.3422 3.77456 18.843 3.52251C19.065 3.41075 19.3068 3.28903 19.5823 3.15882Z" fill="#DE4C9A"/>
</svg>
