<svg width="56" height="56" viewBox="0 0 56 56" fill="none" xmlns="http://www.w3.org/2000/svg">
<path d="M32.9537 5.65731L31.4067 3.52275C31.1913 3.22553 31.0838 3.07694 30.9195 3.00022C30.7555 2.92353 30.5814 2.93561 30.2333 2.95981C26.2673 3.23535 22.6535 4.7904 19.8014 7.2152C19.6507 7.34326 19.7431 7.57633 19.9404 7.58795C22.2286 7.72266 23.4463 8.9939 24.78 10.4039C26.8415 12.5834 28.4625 12.4032 29.2225 12.0015C29.533 11.8374 29.5902 11.7212 29.6098 11.6812L29.6112 11.6783C29.6733 11.553 29.6992 11.4191 29.7916 10.9121C29.8688 10.4883 30.003 9.76092 30.4678 9.05858C30.9594 8.31586 31.6932 7.77439 32.6609 7.39074C33.0643 7.23081 33.1884 7.00691 33.2332 6.79579C33.289 6.5327 33.244 6.11406 32.9537 5.65731Z" fill="url(#paint0_linear_3_16845)"/>
<path d="M35.1673 38.1581C35.4354 38.3826 35.5694 38.495 35.7388 38.5314C35.9082 38.5678 36.068 38.523 36.3879 38.4337C42.148 36.8202 46.7463 32.4246 48.6442 26.7866C48.8932 26.0467 49.0178 25.6769 48.8082 25.3852C48.5987 25.0938 48.1869 25.0938 47.3632 25.0938H46.6693C45.5031 25.0938 44.8647 25.524 43.9283 26.1687L43.8949 26.1916C42.9266 26.8582 41.5126 27.8319 39.326 27.3944C36.4446 26.8179 35.0668 26.9712 34.4727 27.2458C34.2513 27.3482 34.1624 27.4563 34.0996 27.5827C34.0163 27.7507 33.933 28.0576 33.933 28.5982L33.9332 28.8017C33.9337 29.9945 33.9342 30.8958 33.7295 31.7179C33.5165 32.5733 33.093 33.3006 32.5717 34.1961L32.4826 34.3489C32.1443 34.9313 32.0796 35.2538 32.0864 35.4038C32.0887 35.4545 32.0988 35.4976 32.1338 35.5578C32.1744 35.6271 32.2756 35.7627 32.5197 35.9438C32.5477 35.9643 32.575 35.9858 32.6014 36.0082L35.1673 38.1581Z" fill="url(#paint1_linear_3_16845)"/>
<path opacity="0.4" d="M36.2593 4.4677C36.0315 3.97182 35.9177 3.72388 36.0175 3.61013C36.1172 3.4964 36.3563 3.57018 36.8347 3.71779C44.2164 5.99606 49.5807 12.8763 49.5807 21.0102C49.5807 21.3355 49.3131 21.5939 48.9878 21.5939H46.6641C44.3928 21.5939 42.9849 22.5647 42.0182 23.2313L41.9393 23.2856C41.0032 23.93 40.6744 24.0961 40.0073 23.9624C37.0554 23.3718 34.6903 23.2871 32.9994 24.069C32.0786 24.4946 31.3896 25.162 30.96 26.0262C30.5512 26.8494 30.4278 27.7492 30.4278 28.6004C30.4278 30.0883 30.4152 30.5235 30.3282 30.873C30.25 31.1871 30.103 31.4701 29.452 32.5906C29.0012 33.366 28.5331 34.4015 28.5847 35.5612C28.6407 36.8277 29.2924 37.8994 30.3856 38.7256C30.5281 38.8451 30.4378 39.074 30.2523 39.0614C20.846 38.4214 13.4141 30.5842 13.4141 21.0102C13.4141 17.7969 14.2512 14.7792 15.7193 12.1636C16.0022 11.6596 16.1436 11.4076 16.4167 11.2477C16.6897 11.0879 17.004 11.0879 17.6325 11.0879H19.7748C20.5086 11.1397 20.8815 11.3851 22.2312 12.8121C25.0679 15.8111 28.3451 16.4234 30.8506 15.0989C31.7569 14.6199 32.3659 13.9902 32.7404 13.2344C33.0379 12.6339 33.1473 12.0038 33.2089 11.6492L33.228 11.541C33.3018 11.1362 33.3449 11.0448 33.3792 10.993C33.3904 10.9756 33.4847 10.8292 33.9432 10.6474C35.4132 10.0647 36.3563 8.90666 36.6499 7.52453C36.8739 6.46987 36.6956 5.41783 36.2593 4.4677Z" fill="url(#paint2_linear_3_16845)"/>
<path fill-rule="evenodd" clip-rule="evenodd" d="M16.8422 3.03884C17.7406 3.9628 17.7197 5.44005 16.7958 6.33834C12.907 10.1192 10.5026 15.3766 10.5026 21.1912C10.5026 32.6647 19.8864 41.9987 31.5026 41.9987C37.233 41.9987 42.4205 39.7277 46.2094 36.044C47.1334 35.1457 48.6106 35.1667 49.5089 36.0905C50.4073 37.0145 50.3865 38.4917 49.4625 39.39C44.8339 43.8901 38.4909 46.6654 31.5026 46.6654V48.9987H33.8359C35.1246 48.9987 36.1693 50.0433 36.1693 51.332C36.1693 52.6207 35.1246 53.6654 33.8359 53.6654H24.5026C23.214 53.6654 22.1693 52.6207 22.1693 51.332C22.1693 50.0433 23.214 48.9987 24.5026 48.9987H26.8359V46.2451C14.9007 44.0681 5.83594 33.693 5.83594 21.1912C5.83594 14.0591 8.79187 7.61131 13.5428 2.99239C14.4667 2.09408 15.944 2.11488 16.8422 3.03884Z" fill="url(#paint3_linear_3_16845)"/>
<defs>
<linearGradient id="paint0_linear_3_16845" x1="17.3593" y1="7.59591" x2="33.254" y2="7.59591" gradientUnits="userSpaceOnUse">
<stop stop-color="#662FFF"/>
<stop offset="1" stop-color="#EA25F5"/>
</linearGradient>
<linearGradient id="paint1_linear_3_16845" x1="29.1409" y1="31.8189" x2="48.9144" y2="31.8189" gradientUnits="userSpaceOnUse">
<stop stop-color="#662FFF"/>
<stop offset="1" stop-color="#EA25F5"/>
</linearGradient>
<linearGradient id="paint2_linear_3_16845" x1="7.0849" y1="21.3083" x2="49.5807" y2="21.3083" gradientUnits="userSpaceOnUse">
<stop stop-color="#662FFF"/>
<stop offset="1" stop-color="#EA25F5"/>
</linearGradient>
<linearGradient id="paint3_linear_3_16845" x1="-1.92241" y1="27.9987" x2="50.1693" y2="27.9987" gradientUnits="userSpaceOnUse">
<stop stop-color="#662FFF"/>
<stop offset="1" stop-color="#EA25F5"/>
</linearGradient>
</defs>
</svg>
