<svg width="57" height="56" viewBox="0 0 57 56" fill="none" xmlns="http://www.w3.org/2000/svg">
<path opacity="0.5" d="M25.228 53.0846C24.5756 53.0102 23.8896 52.8382 23.2494 52.3774C22.6095 51.9168 22.2297 51.322 21.9532 50.7284C21.7049 50.1953 20.4536 46.4608 20.4536 46.4608C20.4536 46.4608 19.8423 45.4262 19.3403 45.0967C18.3545 44.4501 17.3598 44.3099 16.7117 44.4501C16.7117 44.4501 12.3217 45.6861 11.7017 45.7843C11.0121 45.8935 10.2578 45.9073 9.47775 45.5911C8.69795 45.2752 8.16735 44.7404 7.74959 44.183L4.39302 38.3907C4.13026 37.7859 3.93643 37.1032 4.01943 36.3157C4.10243 35.5282 4.43444 34.9005 4.81769 34.3634C5.16178 33.8811 8.06193 30.6527 8.56371 30.0966C8.56371 30.0966 9.17045 29.1663 9.17045 28.0008C9.17045 26.6365 8.56367 25.9057 8.56367 25.9057C8.56367 25.9057 5.16178 22.1213 4.81766 21.639C4.43444 21.1019 4.10243 20.4742 4.01943 19.6867C3.93643 18.8993 4.13026 18.2165 4.393 17.6117C4.62899 17.0686 7.74964 11.8193 7.74964 11.8193C8.16737 11.2619 8.69797 10.7273 9.47773 10.4112C10.2577 10.095 11.0121 10.1089 11.7016 10.218C12.3216 10.3161 15.9419 11.3343 16.7119 11.5521C16.7119 11.5521 17.947 11.8193 19.3402 10.9056C19.8423 10.5764 20.2313 10.1003 20.4537 9.54165C20.4537 9.54165 21.7049 5.80731 21.9532 5.27419C22.2297 4.68064 22.6095 4.08573 23.2494 3.62516C23.8896 3.16437 24.5756 2.99236 25.228 2.91797H31.772C32.4244 2.99236 33.1104 3.16437 33.7507 3.62516C34.3905 4.08573 34.7704 4.68064 35.0469 5.27419C35.2951 5.80731 36.5463 9.54165 36.5463 9.54165C36.7686 10.1003 37.1576 10.5764 37.6597 10.9056C39.053 11.8193 40.2882 11.5521 40.2882 11.5521C41.058 11.3343 44.6784 10.3161 45.2984 10.218C45.9879 10.1089 46.7422 10.095 47.5223 10.4112C48.3021 10.7273 48.8327 11.2619 49.2503 11.8193C49.2503 11.8193 52.3709 17.0686 52.6071 17.6117C52.8698 18.2165 53.0635 18.8993 52.9806 19.6867C52.8976 20.4742 52.5655 21.1019 52.1824 21.639C51.8382 22.1213 48.4362 25.9057 48.4362 25.9057C48.4362 25.9057 47.8296 26.6365 47.8296 28.0008C47.8296 29.1663 48.4362 30.0966 48.4362 30.0966C48.9381 30.6527 51.8382 33.8811 52.1824 34.3634C52.5655 34.9005 52.8976 35.5282 52.9806 36.3157C53.0635 37.1032 52.8698 37.7859 52.6071 38.3907L49.2503 44.183C48.8327 44.7404 48.3021 45.2752 47.5223 45.5911C46.7422 45.9073 45.9879 45.8935 45.2984 45.7843C44.6784 45.6861 40.2882 44.4501 40.2882 44.4501C39.6403 44.3099 38.6456 44.4501 37.6597 45.0967C37.1576 45.4262 36.5465 46.4608 36.5465 46.4608C36.5465 46.4608 35.2951 50.1953 35.0469 50.7284C34.7704 51.322 34.3905 51.9168 33.7507 52.3774C33.1104 52.8382 32.4244 53.0102 31.772 53.0846H25.228Z" fill="url(#paint0_linear_3_16875)"/>
<path d="M28.4974 20.418C24.3093 20.418 20.9141 23.8132 20.9141 28.0013C20.9141 28.5144 20.9729 29.0543 21.069 29.5362L22.5933 28.0125C23.2767 27.3291 24.3847 27.3291 25.0681 28.0125C25.7515 28.6959 25.7515 29.804 25.0681 30.4875L23.7985 31.757C23.3638 32.1924 22.7978 32.7592 22.3182 33.0835C21.6989 33.5026 20.8587 33.8127 19.8647 33.5117C18.9615 33.238 18.409 32.6255 18.0963 31.9173C17.8725 31.4105 17.7282 30.6828 17.6286 30.1806C17.4877 29.4746 17.4141 28.7456 17.4141 28.0013C17.4141 21.8802 22.3762 16.918 28.4974 16.918C29.9639 16.918 31.3681 17.2037 32.654 17.7243C33.55 18.0869 33.9821 19.1071 33.6195 20.003C33.2569 20.8989 32.2366 21.3312 31.3408 20.9685C30.4651 20.614 29.5063 20.418 28.4974 20.418Z" fill="url(#paint1_linear_3_16875)"/>
<path d="M35.9653 26.657L34.5492 28.0724C33.8657 28.7559 32.7579 28.7559 32.0744 28.0724C31.391 27.389 31.391 26.2811 32.0744 25.5977L33.3216 24.3503C33.7635 23.9079 34.2568 23.4139 34.7421 23.0863C35.3696 22.6629 36.2222 22.3519 37.2257 22.6692C37.6229 22.7947 38.0058 23.004 38.335 23.3272C38.6554 23.6417 38.8544 23.9952 38.9858 24.3123C39.2004 24.8296 39.329 25.5704 39.4179 26.0828C39.5271 26.7074 39.5838 27.3486 39.5838 28.0017C39.5838 34.123 34.6217 39.0851 28.5005 39.0851C27.034 39.0851 25.6298 38.7992 24.3439 38.2787C23.448 37.9161 23.0157 36.8959 23.3783 35.9999C23.741 35.1042 24.7613 34.6718 25.6571 35.0344C26.5328 35.3891 27.4915 35.5851 28.5005 35.5851C32.6886 35.5851 36.0838 32.1898 36.0838 28.0017C36.0838 27.5514 36.0397 27.0833 35.9653 26.657Z" fill="url(#paint2_linear_3_16875)"/>
<defs>
<linearGradient id="paint0_linear_3_16875" x1="-4.575" y1="28.0013" x2="53" y2="28.0013" gradientUnits="userSpaceOnUse">
<stop stop-color="#662FFF"/>
<stop offset="1" stop-color="#EA25F5"/>
</linearGradient>
<linearGradient id="paint1_linear_3_16875" x1="14.5557" y1="25.2749" x2="33.7478" y2="25.2749" gradientUnits="userSpaceOnUse">
<stop stop-color="#662FFF"/>
<stop offset="1" stop-color="#EA25F5"/>
</linearGradient>
<linearGradient id="paint2_linear_3_16875" x1="20.3916" y1="30.8121" x2="39.5838" y2="30.8121" gradientUnits="userSpaceOnUse">
<stop stop-color="#662FFF"/>
<stop offset="1" stop-color="#EA25F5"/>
</linearGradient>
</defs>
</svg>
