<svg width="57" height="56" viewBox="0 0 57 56" fill="none" xmlns="http://www.w3.org/2000/svg">
<g opacity="0.4">
<path d="M52.1987 22.9535C52.4036 23.157 52.4055 23.4822 52.4094 24.1323C52.4167 25.3069 52.4167 26.5503 52.4167 27.8665V28.1335C52.4167 33.2451 52.4167 37.2601 51.9953 40.3947C51.5634 43.6067 50.6604 46.1554 48.6579 48.1579C46.6554 50.1604 44.1067 51.0634 40.8947 51.4953C37.7601 51.9167 33.7451 51.9167 28.6335 51.9167H28.3665C27.0503 51.9167 25.8069 51.9167 24.6323 51.9094C23.9822 51.9055 23.657 51.9036 23.4535 51.6987C23.25 51.4941 23.25 51.1674 23.25 50.5143V24.15C23.25 23.4901 23.25 23.1601 23.455 22.955C23.6601 22.75 23.9901 22.75 24.65 22.75H51.0143C51.6674 22.75 51.9941 22.75 52.1987 22.9535Z" fill="url(#paint0_linear_3_16854)"/>
<path d="M18.3526 22.75C19.0126 22.75 19.3425 22.75 19.5476 22.955C19.7526 23.1601 19.7526 23.4901 19.7526 24.15V50.3349C19.7526 51.0279 19.7526 51.3744 19.5292 51.5821C19.3058 51.7897 18.9666 51.7648 18.2881 51.7153C17.5179 51.6591 16.792 51.5872 16.108 51.4953C12.8958 51.0634 10.3472 50.1604 8.34473 48.1579C6.34228 46.1554 5.43919 43.6067 5.00731 40.3947C4.58589 37.2601 4.58591 33.2451 4.58594 28.1335V27.8665C4.58594 26.5505 4.58591 25.3066 4.5931 24.1323C4.59709 23.4822 4.59907 23.157 4.80385 22.9535C5.0086 22.75 5.33512 22.75 5.98818 22.75H18.3526Z" fill="url(#paint1_linear_3_16854)"/>
</g>
<path fill-rule="evenodd" clip-rule="evenodd" d="M29.0859 30.332C29.0859 29.3656 29.8695 28.582 30.8359 28.582H40.1693C41.1357 28.582 41.9193 29.3656 41.9193 30.332C41.9193 31.2985 41.1357 32.082 40.1693 32.082H30.8359C29.8695 32.082 29.0859 31.2985 29.0859 30.332Z" fill="url(#paint2_linear_3_16854)"/>
<path fill-rule="evenodd" clip-rule="evenodd" d="M29.0859 39.668C29.0859 38.7015 29.8695 37.918 30.8359 37.918H35.5026C36.4691 37.918 37.2526 38.7015 37.2526 39.668C37.2526 40.6344 36.4691 41.418 35.5026 41.418H30.8359C29.8695 41.418 29.0859 40.6344 29.0859 39.668Z" fill="url(#paint3_linear_3_16854)"/>
<path fill-rule="evenodd" clip-rule="evenodd" d="M28.3662 4.08203H28.6331C33.7448 4.08201 37.7597 4.08199 40.8943 4.50341C44.1064 4.93528 46.6551 5.83838 48.6576 7.84082C50.66 9.84329 51.563 12.3919 51.9949 15.6041C52.0869 16.2881 52.1587 17.014 52.215 17.7842C52.2644 18.4627 52.2894 18.8019 52.0817 19.0253C51.8741 19.2487 51.5276 19.2487 50.8346 19.2487H6.16485C5.47187 19.2487 5.12539 19.2487 4.91773 19.0253C4.71006 18.8019 4.73482 18.4627 4.78433 17.7842C4.84054 17.014 4.91243 16.2881 5.00439 15.6041C5.43626 12.3919 6.33936 9.84329 8.3418 7.84082C10.3443 5.83838 12.8929 4.93528 16.1051 4.50341C19.2397 4.08199 23.2546 4.08201 28.3662 4.08203ZM14.498 11.6654C14.498 10.3767 15.538 9.33203 16.8209 9.33203H16.8418C18.1247 9.33203 19.1647 10.3767 19.1647 11.6654C19.1647 12.954 18.1247 13.9987 16.8418 13.9987H16.8209C15.538 13.9987 14.498 12.954 14.498 11.6654ZM26.1542 9.33203C24.8713 9.33203 23.8314 10.3767 23.8314 11.6654C23.8314 12.954 24.8713 13.9987 26.1542 13.9987H26.1752C27.4581 13.9987 28.498 12.954 28.498 11.6654C28.498 10.3767 27.4581 9.33203 26.1752 9.33203H26.1542Z" fill="url(#paint4_linear_3_16854)"/>
<defs>
<linearGradient id="paint0_linear_3_16854" x1="18.1458" y1="37.3333" x2="52.4167" y2="37.3333" gradientUnits="userSpaceOnUse">
<stop stop-color="#662FFF"/>
<stop offset="1" stop-color="#EA25F5"/>
</linearGradient>
<linearGradient id="paint1_linear_3_16854" x1="1.93177" y1="37.2498" x2="19.7526" y2="37.2498" gradientUnits="userSpaceOnUse">
<stop stop-color="#662FFF"/>
<stop offset="1" stop-color="#EA25F5"/>
</linearGradient>
<linearGradient id="paint2_linear_3_16854" x1="26.8401" y1="30.332" x2="41.9193" y2="30.332" gradientUnits="userSpaceOnUse">
<stop stop-color="#662FFF"/>
<stop offset="1" stop-color="#EA25F5"/>
</linearGradient>
<linearGradient id="paint3_linear_3_16854" x1="27.6568" y1="39.668" x2="37.2526" y2="39.668" gradientUnits="userSpaceOnUse">
<stop stop-color="#662FFF"/>
<stop offset="1" stop-color="#EA25F5"/>
</linearGradient>
<linearGradient id="paint4_linear_3_16854" x1="-3.56239" y1="11.6654" x2="52.2493" y2="11.6654" gradientUnits="userSpaceOnUse">
<stop stop-color="#662FFF"/>
<stop offset="1" stop-color="#EA25F5"/>
</linearGradient>
</defs>
</svg>
