<svg width="57" height="56" viewBox="0 0 57 56" fill="none" xmlns="http://www.w3.org/2000/svg">
<path d="M31.1843 5.7746C31.6097 5.08669 32.3606 4.66797 33.1693 4.66797C42.1979 4.66797 49.5026 11.9726 49.5026 21.0013C49.5026 22.29 48.458 23.3346 47.1693 23.3346C45.8806 23.3346 44.836 22.29 44.836 21.0013C44.836 16.5201 42.3197 12.6353 38.6207 10.6805L36.7484 12.5528C36.3937 12.9075 35.9896 13.2432 35.4928 13.3127C34.5278 13.448 33.5422 12.9646 33.0823 12.0448L31.0824 8.04479C30.7207 7.32151 30.7592 6.46251 31.1843 5.7746Z" fill="url(#paint0_linear_3_16883)"/>
<path d="M9.83333 32.668C11.122 32.668 12.1667 33.7126 12.1667 35.0013C12.1667 39.4825 14.683 43.3672 18.382 45.3221L20.2544 43.4498C20.609 43.0952 21.0131 42.7594 21.5098 42.6899C22.4749 42.5548 23.4604 43.038 23.9204 43.9578L25.9203 47.9578C26.2819 48.6812 26.2434 49.5401 25.8183 50.2279C25.3929 50.9158 24.6421 51.3346 23.8333 51.3346C14.8047 51.3346 7.5 44.0299 7.5 35.0013C7.5 33.7126 8.54468 32.668 9.83333 32.668Z" fill="url(#paint1_linear_3_16883)"/>
<g opacity="0.4">
<path d="M34.1772 43.1531C38.5676 40.8396 44.1055 40.8396 48.4957 43.1531C48.6058 43.211 48.751 43.2833 48.922 43.3682C49.7391 43.7749 51.1454 44.4745 52.1047 45.3054C52.6924 45.8145 53.4267 46.626 53.5644 47.74C53.7186 48.9874 53.073 50.0294 52.1509 50.8069C50.689 52.0394 48.862 53.0847 46.4806 53.0847H36.1925C33.8109 53.0847 31.9839 52.0394 30.5223 50.8069C29.6001 50.0294 28.9545 48.9874 29.1087 47.74C29.2462 46.626 29.9807 45.8145 30.5685 45.3054C31.5277 44.4745 32.9338 43.7749 33.7511 43.3682C33.9222 43.2833 34.0673 43.211 34.1772 43.1531Z" fill="url(#paint2_linear_3_16883)"/>
<path d="M34.3359 33.25C34.3359 29.4005 37.4535 26.25 41.3359 26.25C45.2184 26.25 48.3359 29.4005 48.3359 33.25C48.3359 37.0995 45.2184 40.25 41.3359 40.25C37.4535 40.25 34.3359 37.0995 34.3359 33.25Z" fill="url(#paint3_linear_3_16883)"/>
</g>
<g opacity="0.4">
<path d="M8.5055 19.821C12.8958 17.5076 18.4337 17.5076 22.824 19.821C22.9339 19.8789 23.0791 19.9512 23.2501 20.0363C24.0673 20.4428 25.4736 21.1424 26.4329 21.9733C27.0206 22.4825 27.7549 23.2938 27.8926 24.4079C28.0468 25.6553 27.4012 26.6973 26.4791 27.4748C25.0172 28.7073 23.1903 29.7526 20.8087 29.7526H10.5208C8.13916 29.7526 6.31216 28.7073 4.85047 27.4748C3.92827 26.6973 3.28275 25.6553 3.43682 24.4079C3.57444 23.2938 4.30881 22.4825 4.89665 21.9733C5.85586 21.1424 7.26206 20.4428 8.07936 20.0363C8.25032 19.9512 8.39555 19.8789 8.5055 19.821Z" fill="url(#paint4_linear_3_16883)"/>
<path d="M8.66406 9.91797C8.66406 6.06848 11.7815 2.91797 15.6641 2.91797C19.5466 2.91797 22.6641 6.06848 22.6641 9.91797C22.6641 13.7675 19.5466 16.918 15.6641 16.918C11.7815 16.918 8.66406 13.7675 8.66406 9.91797Z" fill="url(#paint5_linear_3_16883)"/>
</g>
<defs>
<linearGradient id="paint0_linear_3_16883" x1="27.5693" y1="14.0013" x2="49.5026" y2="14.0013" gradientUnits="userSpaceOnUse">
<stop stop-color="#662FFF"/>
<stop offset="1" stop-color="#EA25F5"/>
</linearGradient>
<linearGradient id="paint1_linear_3_16883" x1="4.23333" y1="42.0013" x2="26.1667" y2="42.0013" gradientUnits="userSpaceOnUse">
<stop stop-color="#662FFF"/>
<stop offset="1" stop-color="#EA25F5"/>
</linearGradient>
<linearGradient id="paint2_linear_3_16883" x1="24.7982" y1="47.2513" x2="53.5872" y2="47.2513" gradientUnits="userSpaceOnUse">
<stop stop-color="#662FFF"/>
<stop offset="1" stop-color="#EA25F5"/>
</linearGradient>
<linearGradient id="paint3_linear_3_16883" x1="31.8859" y1="33.25" x2="48.3359" y2="33.25" gradientUnits="userSpaceOnUse">
<stop stop-color="#662FFF"/>
<stop offset="1" stop-color="#EA25F5"/>
</linearGradient>
<linearGradient id="paint4_linear_3_16883" x1="-0.873672" y1="23.9193" x2="27.9154" y2="23.9193" gradientUnits="userSpaceOnUse">
<stop stop-color="#662FFF"/>
<stop offset="1" stop-color="#EA25F5"/>
</linearGradient>
<linearGradient id="paint5_linear_3_16883" x1="6.21406" y1="9.91797" x2="22.6641" y2="9.91797" gradientUnits="userSpaceOnUse">
<stop stop-color="#662FFF"/>
<stop offset="1" stop-color="#EA25F5"/>
</linearGradient>
</defs>
</svg>
