<svg width="56" height="56" viewBox="0 0 56 56" fill="none" xmlns="http://www.w3.org/2000/svg">
<path opacity="0.4" fill-rule="evenodd" clip-rule="evenodd" d="M27.8316 2.33203H28.1679C31.8746 2.33196 34.8921 2.33191 37.2716 2.65184C39.7543 2.98562 41.8893 3.70564 43.591 5.40741C45.1079 6.92417 45.8475 8.78886 46.226 10.9455C46.5928 13.0347 46.6514 15.597 46.6635 18.6562C46.6686 19.9448 45.628 20.9936 44.3393 20.9987C43.0506 21.0038 42.002 19.9632 41.9968 18.6746C41.9847 15.5635 41.9173 13.3903 41.6298 11.7523C41.354 10.1818 40.9114 9.32753 40.2912 8.70724C39.601 8.01706 38.6149 7.54111 36.6498 7.2769C34.6177 7.00367 31.9154 6.9987 27.9996 6.9987C24.0841 6.9987 21.3819 7.00367 19.3496 7.2769C17.3844 7.54111 16.3984 8.01706 15.7083 8.70724C15.088 9.32753 14.6454 10.1818 14.3697 11.7523C14.0822 13.3903 14.0148 15.5635 14.0026 18.6746C13.9975 19.9632 12.9487 21.0038 11.6601 20.9987C10.3714 20.9936 9.33089 19.9448 9.33596 18.6562C9.348 15.597 9.40663 13.0347 9.77332 10.9455C10.1519 8.78886 10.8917 6.92417 12.4084 5.40741C14.1102 3.70564 16.2451 2.98562 18.7278 2.65184C21.1074 2.33191 24.1247 2.33196 27.8316 2.33203ZM11.6601 34.9987C12.9487 34.9936 13.9975 36.0342 14.0026 37.3229C14.0148 40.434 14.0822 42.6072 14.3697 44.2452C14.6454 45.8156 15.088 46.6698 15.7083 47.2902C16.3984 47.9804 17.3844 48.4562 19.3496 48.7206C21.3819 48.9938 24.0838 48.9987 27.9996 48.9987C31.9154 48.9987 34.6177 48.9938 36.6498 48.7206C38.6149 48.4562 39.601 47.9804 40.2912 47.2902C40.9114 46.6698 41.354 45.8156 41.6298 44.2452C41.9173 42.6072 41.9847 40.434 41.9968 37.3229C42.002 36.0342 43.0506 34.9936 44.3393 34.9987C45.628 35.0038 46.6686 36.0527 46.6635 37.3411C46.6514 40.4004 46.5928 42.9626 46.226 45.0519C45.8475 47.2086 45.1079 49.0731 43.591 50.59C41.8893 52.2917 39.7543 53.0118 37.2716 53.3455C34.8921 53.6656 31.8746 53.6654 28.1679 53.6654H27.8316C24.1247 53.6654 21.1074 53.6656 18.7278 53.3455C16.2451 53.0118 14.1102 52.2917 12.4084 50.59C10.8917 49.0731 10.1519 47.2086 9.77332 45.0519C9.40663 42.9626 9.348 40.4004 9.33596 37.3411C9.33089 36.0527 10.3714 35.0038 11.6601 34.9987Z" fill="url(#paint0_linear_3_16865)"/>
<path opacity="0.4" fill-rule="evenodd" clip-rule="evenodd" d="M23.3359 44.3333C23.3359 43.0446 24.3806 42 25.6693 42H30.3359C31.6246 42 32.6693 43.0446 32.6693 44.3333C32.6693 45.622 31.6246 46.6667 30.3359 46.6667H25.6693C24.3806 46.6667 23.3359 45.622 23.3359 44.3333Z" fill="url(#paint1_linear_3_16865)"/>
<path fill-rule="evenodd" clip-rule="evenodd" d="M35.5659 21.81C34.7245 22.7861 34.834 24.2594 35.81 25.1008L38.6718 27.5676C38.8622 27.7317 39.0263 27.8731 39.1712 28C39.0263 28.1269 38.8622 28.2686 38.6718 28.4326L35.81 30.8994C34.834 31.7406 34.7245 33.2141 35.5659 34.1901C36.4073 35.1661 37.8806 35.2756 38.8569 34.4342L41.7187 31.9674C41.7474 31.9426 41.7761 31.9177 41.805 31.8929C42.3303 31.4407 42.8882 30.9601 43.296 30.4992C43.7573 29.9782 44.3334 29.1513 44.3334 28C44.3334 26.8487 43.7573 26.0218 43.296 25.5008C42.8882 25.0399 42.3303 24.5595 41.805 24.1073C41.7761 24.0823 41.7474 24.0574 41.7187 24.0326L38.8569 21.566C37.8806 20.7246 36.4073 20.8339 35.5659 21.81Z" fill="url(#paint2_linear_3_16865)"/>
<path fill-rule="evenodd" clip-rule="evenodd" d="M20.4393 21.81C21.2806 22.7861 21.1714 24.2594 20.1953 25.1008L17.3333 27.5676C17.143 27.7317 16.9789 27.8731 16.8342 28C16.9789 28.1269 17.143 28.2686 17.3333 28.4326L20.1953 30.8994C21.1714 31.7406 21.2806 33.2141 20.4393 34.1901C19.5979 35.1661 18.1246 35.2756 17.1485 34.4342L14.2866 31.9674C14.2579 31.9426 14.229 31.9177 14.2001 31.8929C13.675 31.4407 13.1172 30.9601 12.7092 30.4992C12.248 29.9782 11.6719 29.1513 11.6719 28C11.6719 26.8487 12.248 26.0218 12.7092 25.5008C13.1172 25.0399 13.675 24.5595 14.2001 24.1073C14.229 24.0823 14.2579 24.0574 14.2866 24.0326L17.1485 21.566C18.1246 20.7246 19.5979 20.8339 20.4393 21.81Z" fill="url(#paint3_linear_3_16865)"/>
<path fill-rule="evenodd" clip-rule="evenodd" d="M31.0744 18.7883C32.2969 19.1959 32.9577 20.5173 32.55 21.7398L27.8834 35.7398C27.476 36.9622 26.1546 37.623 24.9319 37.2156C23.7095 36.808 23.0488 35.4866 23.4563 34.264L28.123 20.2641C28.5304 19.0415 29.8518 18.3808 31.0744 18.7883Z" fill="url(#paint4_linear_3_16865)"/>
<defs>
<linearGradient id="paint0_linear_3_16865" x1="2.80361" y1="27.9987" x2="46.6635" y2="27.9987" gradientUnits="userSpaceOnUse">
<stop stop-color="#662FFF"/>
<stop offset="1" stop-color="#EA25F5"/>
</linearGradient>
<linearGradient id="paint1_linear_3_16865" x1="21.7026" y1="44.3333" x2="32.6693" y2="44.3333" gradientUnits="userSpaceOnUse">
<stop stop-color="#662FFF"/>
<stop offset="1" stop-color="#EA25F5"/>
</linearGradient>
<linearGradient id="paint2_linear_3_16865" x1="33.3666" y1="28.0001" x2="44.3334" y2="28.0001" gradientUnits="userSpaceOnUse">
<stop stop-color="#662FFF"/>
<stop offset="1" stop-color="#EA25F5"/>
</linearGradient>
<linearGradient id="paint3_linear_3_16865" x1="10.0385" y1="28.0001" x2="21.0052" y2="28.0001" gradientUnits="userSpaceOnUse">
<stop stop-color="#662FFF"/>
<stop offset="1" stop-color="#EA25F5"/>
</linearGradient>
<linearGradient id="paint4_linear_3_16865" x1="21.7024" y1="28.002" x2="32.6705" y2="28.002" gradientUnits="userSpaceOnUse">
<stop stop-color="#662FFF"/>
<stop offset="1" stop-color="#EA25F5"/>
</linearGradient>
</defs>
</svg>
