<svg width="32" height="32" viewBox="0 0 32 32" fill="none" xmlns="http://www.w3.org/2000/svg">
<g clip-path="url(#clip0_3_19491)">
<path d="M7.12346 13.1572L6.09499 9.82888C5.93458 9.30986 5.97861 8.74576 6.21738 8.26053C6.45616 7.7753 6.87016 7.40864 7.3684 7.24112L25.6807 1.09879C26.1793 0.931808 26.7211 0.977842 27.1871 1.22677C27.6531 1.47571 28.0051 1.90716 28.1657 2.42627L30.9048 11.2798C30.9844 11.5369 31.0145 11.8079 30.9935 12.0772C30.9725 12.3465 30.9008 12.6089 30.7824 12.8493C30.6641 13.0898 30.5014 13.3036 30.3036 13.4785C30.1059 13.6534 29.877 13.7861 29.63 13.8689L23.2761 16" stroke="white" stroke-width="2" stroke-linecap="round" stroke-linejoin="round"/>
<path d="M23 25V28.428C22.999 28.7668 22.9312 29.1021 22.8006 29.4147C22.6699 29.7274 22.479 30.0112 22.2387 30.25C21.9984 30.4888 21.7134 30.678 21.3999 30.8067C21.0865 30.9354 20.7508 31.0011 20.412 31H3.588C3.24919 31.0011 2.91349 30.9354 2.60007 30.8067C2.28664 30.678 2.00164 30.4888 1.76132 30.25C1.521 30.0112 1.33008 29.7274 1.19945 29.4147C1.06882 29.1021 1.00105 28.7668 1 28.428V15.5707C1.00105 15.2319 1.06883 14.8967 1.19947 14.5842C1.33012 14.2716 1.52106 13.9879 1.7614 13.7492C2.00173 13.5104 2.28675 13.3214 2.60017 13.1929C2.91358 13.0643 3.24925 12.9988 3.588 13H20.412C20.7507 12.9988 21.0864 13.0643 21.3998 13.1929C21.7132 13.3214 21.9983 13.5104 22.2386 13.7492C22.4789 13.9879 22.6699 14.2716 22.8005 14.5842C22.9312 14.8967 22.999 15.2319 23 15.5707V19" stroke="white" stroke-width="2" stroke-linecap="round" stroke-linejoin="round"/>
<path d="M6 13V31" stroke="white" stroke-width="2" stroke-linecap="round" stroke-linejoin="round"/>
<path d="M18.7705 19C18.0061 19.0319 17.2856 19.3656 16.7667 19.9279C16.2478 20.4902 15.9729 21.2353 16.0021 22C15.9729 22.7647 16.2478 23.5098 16.7667 24.0721C17.2856 24.6344 18.0061 24.9681 18.7705 25H23.6154C23.9974 24.9837 24.3574 24.8168 24.6167 24.5357C24.8759 24.2546 25.0134 23.8822 24.9989 23.5V20.5C25.0137 20.1177 24.8764 19.7451 24.6171 19.464C24.3577 19.1828 23.9975 19.0159 23.6154 19H18.7705Z" stroke="white" stroke-width="2" stroke-linecap="round" stroke-linejoin="round"/>
<path d="M21.5 21C21.5989 21 21.6956 21.0293 21.7778 21.0843C21.86 21.1392 21.9241 21.2173 21.9619 21.3087C21.9998 21.4 22.0097 21.5006 21.9904 21.5975C21.9711 21.6945 21.9235 21.7836 21.8536 21.8536C21.7836 21.9235 21.6945 21.9711 21.5975 21.9904C21.5006 22.0097 21.4 21.9998 21.3087 21.9619C21.2173 21.9241 21.1392 21.86 21.0843 21.7778C21.0293 21.6956 21 21.5989 21 21.5C21 21.3674 21.0527 21.2402 21.1464 21.1464C21.2402 21.0527 21.3674 21 21.5 21Z" stroke="white" stroke-width="2" stroke-linecap="round" stroke-linejoin="round"/>
<path d="M16 9.75261C16.1964 9.50601 16.505 9.30288 16.8854 9.16975C17.2659 9.03663 17.7005 8.97971 18.1326 9.00643C18.5646 9.03315 18.974 9.14227 19.3071 9.31953C19.6403 9.49679 19.8818 9.73394 20 10" stroke="white" stroke-width="2" stroke-linecap="round" stroke-linejoin="round"/>
</g>
<defs>
<clipPath id="clip0_3_19491">
<rect width="32" height="32" fill="white"/>
</clipPath>
</defs>
</svg>
