<svg width="32" height="32" viewBox="0 0 32 32" fill="none" xmlns="http://www.w3.org/2000/svg">
<g clip-path="url(#clip0_3_19521)">
<path d="M10.9999 23H3.99994C3.46951 23 2.9608 22.7893 2.58573 22.4142C2.21065 22.0391 1.99994 21.5304 1.99994 21V10C1.99994 9.46957 2.21065 8.96086 2.58573 8.58579C2.9608 8.21071 3.46951 8 3.99994 8H28.9999C29.5304 8 30.0391 8.21071 30.4142 8.58579C30.7892 8.96086 30.9999 9.46957 30.9999 10V21.6667" stroke="white" stroke-width="2" stroke-linecap="round" stroke-linejoin="round"/>
<path d="M7.99994 26L8.99994 27.6271V31" stroke="white" stroke-width="2" stroke-linecap="round" stroke-linejoin="round"/>
<path d="M10.9999 6.15208C10.9999 5.58131 10.7892 5.03392 10.4142 4.63033C10.0391 4.22674 9.53037 4 8.99994 4C8.46951 4 7.9608 4.22674 7.58573 4.63033C7.21065 5.03392 6.99994 5.58131 6.99994 6.15208V8" stroke="white" stroke-width="2" stroke-linecap="round" stroke-linejoin="round"/>
<path d="M14.9999 8V4.97994C14.9999 4.45482 14.7892 3.95122 14.4142 3.57991C14.0391 3.2086 13.5304 3 12.9999 3C12.4695 3 11.9608 3.2086 11.5857 3.57991C11.2107 3.95122 10.9999 4.45482 10.9999 4.97994V8" stroke="white" stroke-width="2" stroke-linecap="round" stroke-linejoin="round"/>
<path d="M18.9999 8V3C18.9999 2.46957 18.7892 1.96086 18.4142 1.58579C18.0391 1.21071 17.5304 1 16.9999 1C16.4695 1 15.9608 1.21071 15.5857 1.58579C15.2107 1.96086 14.9999 2.46957 14.9999 3V8" stroke="white" stroke-width="2" stroke-linecap="round" stroke-linejoin="round"/>
<path d="M22.9999 8V4.97994C22.9999 4.45482 22.7892 3.95122 22.4142 3.57991C22.0391 3.2086 21.5304 3 20.9999 3C20.4695 3 19.9608 3.2086 19.5857 3.57991C19.2107 3.95122 18.9999 4.45482 18.9999 4.97994V6.35005" stroke="white" stroke-width="2" stroke-linecap="round" stroke-linejoin="round"/>
<path d="M20.972 31V29.6667C20.9699 29.2563 21.0614 28.8509 21.2395 28.4812C21.4176 28.1115 21.6777 27.7874 22 27.5333L24.972 25.1333C25.294 24.8791 25.554 24.5549 25.7321 24.1853C25.9102 23.8156 26.0018 23.4103 26 23V16.9587C25.9967 16.4455 25.7934 15.9539 25.4334 15.5881C25.0734 15.2224 24.585 15.0114 24.072 15C22.4 15 22.072 16.8867 22.0573 16.9533L21.6773 19.7093C21.625 20.1069 21.4837 20.4876 21.264 20.823C21.0442 21.1584 20.7516 21.44 20.408 21.6467L18.296 22.8987C17.8979 23.1395 17.5692 23.4795 17.3421 23.8855C17.1149 24.2914 16.997 24.7495 17 25.2147V27" stroke="white" stroke-width="2" stroke-linecap="round" stroke-linejoin="round"/>
<path d="M12.2967 17.8672C12.6117 18.2347 13.0218 18.5293 13.4922 18.7261C13.9627 18.9229 14.4796 19.0161 14.9992 18.9977C16.6559 18.9977 17.9999 18.1023 17.9999 16.9989C17.9999 15.8954 16.6559 15.0013 14.9992 15.0013C13.3425 15.0013 11.9999 14.1059 11.9999 13.0012C11.9999 11.8965 13.3439 11.0024 14.9992 11.0024C15.5189 10.9836 16.0359 11.0767 16.5064 11.2735C16.9769 11.4703 17.387 11.7652 17.7018 12.1329" stroke="white" stroke-width="2" stroke-linecap="round" stroke-linejoin="round"/>
<path d="M14.9999 20V21" stroke="white" stroke-width="2" stroke-linecap="round" stroke-linejoin="round"/>
<path d="M14.9999 10V11" stroke="white" stroke-width="2" stroke-linecap="round" stroke-linejoin="round"/>
</g>
<defs>
<clipPath id="clip0_3_19521">
<rect width="32" height="32" fill="white"/>
</clipPath>
</defs>
</svg>
