<svg width="32" height="32" viewBox="0 0 32 32" fill="none" xmlns="http://www.w3.org/2000/svg">
<g clip-path="url(#clip0_3_19542)">
<path d="M11 22.3333V29.6667C11 30.403 11.597 31 12.3333 31H25.6667C26.403 31 27 30.403 27 29.6667V22.3333C27 21.597 26.403 21 25.6667 21H12.3333C11.597 21 11 21.597 11 22.3333Z" stroke="white" stroke-width="2" stroke-linecap="round" stroke-linejoin="round"/>
<path d="M15 21.3424L15.8627 17.5735C15.9225 17.3109 16.0306 17.0635 16.1807 16.8452C16.3308 16.6269 16.52 16.4421 16.7375 16.3013C16.955 16.1605 17.1966 16.0666 17.4484 16.0248C17.7003 15.983 17.9574 15.9942 18.2051 16.0577L29.5162 18.9522C29.7639 19.0157 29.9973 19.1303 30.2032 19.2894C30.4091 19.4485 30.5833 19.6491 30.716 19.8796C30.8488 20.11 30.9373 20.366 30.9767 20.6327C31.0161 20.8995 31.0055 21.1718 30.9455 21.4342L29.5796 27.4275C29.5133 27.7182 29.3879 27.99 29.2122 28.224C29.0366 28.458 28.8148 28.6486 28.5625 28.7824C28.3102 28.9163 28.0333 28.9902 27.7513 28.9991C27.4692 29.008 27.1887 28.9515 26.9294 28.8337" stroke="white" stroke-width="2" stroke-linecap="round" stroke-linejoin="round"/>
<path d="M19.4999 26C19.5987 26 19.6954 26.0293 19.7776 26.0843C19.8598 26.1392 19.9238 26.2173 19.9617 26.3087C19.9995 26.4 20.0094 26.5006 19.9901 26.5975C19.9708 26.6945 19.9232 26.7836 19.8533 26.8536C19.7834 26.9235 19.6943 26.9711 19.5974 26.9904C19.5004 27.0097 19.3999 26.9998 19.3086 26.9619C19.2172 26.9241 19.1392 26.86 19.0842 26.7778C19.0293 26.6956 19 26.5989 19 26.5C19 26.3674 19.0527 26.2402 19.1464 26.1464C19.2401 26.0527 19.3673 26 19.4999 26Z" stroke="white" stroke-width="2" stroke-linecap="round" stroke-linejoin="round"/>
<path d="M1 23C1.00104 21.579 1.34422 20.1785 2.00149 18.9128C2.65876 17.6471 3.61147 16.5522 4.78176 15.7175C5.95205 14.8829 7.30671 14.3321 8.73504 14.1104C10.1634 13.8886 11.6248 14.0021 13 14.4415" stroke="white" stroke-width="2" stroke-linecap="round" stroke-linejoin="round"/>
<path d="M5 4C5.83602 4.94899 6.83817 5.70375 7.94658 6.2192C9.055 6.73464 10.2469 7.0002 11.4512 7C12.6715 7.0009 13.8791 6.72886 15 6.20057" stroke="white" stroke-width="2" stroke-linecap="round" stroke-linejoin="round"/>
<path d="M10.5 12C13.5376 12 16 9.53757 16 6.5C16 3.46243 13.5376 1 10.5 1C7.46243 1 5 3.46243 5 6.5C5 9.53757 7.46243 12 10.5 12Z" stroke="white" stroke-width="2" stroke-linecap="round" stroke-linejoin="round"/>
</g>
<defs>
<clipPath id="clip0_3_19542">
<rect width="32" height="32" fill="white"/>
</clipPath>
</defs>
</svg>
