<svg width="32" height="32" viewBox="0 0 32 32" fill="none" xmlns="http://www.w3.org/2000/svg">
<path d="M30 31L26 25V18C26 15.3333 20.9333 12.4813 19 11" stroke="white" stroke-width="2" stroke-linecap="round" stroke-linejoin="round"/>
<path d="M21 19.4988L16.0306 15.5195C15.6976 15.1869 15.2461 15 14.7753 15C14.3044 15 13.8529 15.1869 13.52 15.5195C13.187 15.8521 13 16.3032 13 16.7736C13 17.0065 13.0459 17.2371 13.1351 17.4523C13.2243 17.6674 13.3551 17.863 13.52 18.0277L18.3341 23.4537V26.856C18.3341 28.4632 20.6322 31 20.6322 31" stroke="white" stroke-width="2" stroke-linecap="round" stroke-linejoin="round"/>
<path d="M18.9867 27.232C18.9298 27.719 18.696 28.1681 18.3298 28.494C17.9635 28.82 17.4903 29 17 29H5C4.46957 29 3.96086 28.7893 3.58579 28.4142C3.21071 28.0391 3 27.5304 3 27V3C3 2.46957 3.21071 1.96086 3.58579 1.58579C3.96086 1.21071 4.46957 1 5 1H17C17.5304 1 18.0391 1.21071 18.4142 1.58579C18.7893 1.96086 19 2.46957 19 3V17.6667" stroke="white" stroke-width="2" stroke-linecap="round" stroke-linejoin="round"/>
<path d="M11.0054 19C10.3366 18.9991 9.67867 18.8315 9.09143 18.5123C8.5042 18.1931 8.00631 17.7325 7.64309 17.1725C7.27986 16.6124 7.06282 15.9707 7.01172 15.3056C6.96063 14.6406 7.07709 13.9733 7.35052 13.3646C7.62395 12.7559 8.04566 12.2251 8.57727 11.8204C9.10889 11.4157 9.73354 11.15 10.3944 11.0475C11.0552 10.945 11.7313 11.009 12.361 11.2335C12.9907 11.4581 13.5541 11.8362 14 12.3333" stroke="white" stroke-width="2" stroke-linecap="round" stroke-linejoin="round"/>
<path d="M6.5 4C6.59889 4 6.69556 4.02932 6.77778 4.08427C6.86001 4.13921 6.9241 4.2173 6.96194 4.30866C6.99978 4.40002 7.00969 4.50055 6.99039 4.59755C6.9711 4.69454 6.92348 4.78363 6.85355 4.85355C6.78363 4.92348 6.69454 4.9711 6.59754 4.99039C6.50055 5.00969 6.40002 4.99978 6.30866 4.96194C6.2173 4.9241 6.13921 4.86001 6.08427 4.77779C6.02932 4.69556 6 4.59889 6 4.5C6 4.36739 6.05268 4.24021 6.14645 4.14645C6.24022 4.05268 6.36739 4 6.5 4Z" stroke="white" stroke-width="2" stroke-linecap="round" stroke-linejoin="round"/>
<path d="M15.5 25C15.5989 25 15.6956 25.0293 15.7778 25.0843C15.86 25.1392 15.9241 25.2173 15.9619 25.3087C15.9998 25.4 16.0097 25.5006 15.9904 25.5975C15.9711 25.6945 15.9235 25.7836 15.8536 25.8536C15.7836 25.9235 15.6945 25.9711 15.5975 25.9904C15.5006 26.0097 15.4 25.9998 15.3087 25.9619C15.2173 25.9241 15.1392 25.86 15.0843 25.7778C15.0293 25.6956 15 25.5989 15 25.5C15 25.3674 15.0527 25.2402 15.1464 25.1464C15.2402 25.0527 15.3674 25 15.5 25Z" stroke="white" stroke-width="2" stroke-linecap="round" stroke-linejoin="round"/>
</svg>
