<svg width="36" height="36" viewBox="0 0 36 36" fill="none" xmlns="http://www.w3.org/2000/svg">
<path d="M20.1429 15.8571H19V17H20.1429V15.8571ZM20.1429 11.2857L19.3348 10.4776L19 10.8123V11.2857H20.1429ZM24.7143 15.8571V17H25.1877L25.5224 16.6652L24.7143 15.8571ZM29.2857 2.14286L30.0938 1.33473C29.6475 0.888422 28.924 0.888422 28.4777 1.33473L29.2857 2.14286ZM33.8572 6.71429L34.6653 7.52241C35.1116 7.0761 35.1116 6.35247 34.6653 5.90616L33.8572 6.71429ZM21.2857 15.8571V11.2857H19V15.8571H21.2857ZM20.1429 17H24.7143V14.7143H20.1429V17ZM20.9509 12.0938L30.0938 2.95098L28.4777 1.33473L19.3348 10.4776L20.9509 12.0938ZM28.4777 2.95098L33.0491 7.52241L34.6653 5.90616L30.0938 1.33473L28.4777 2.95098ZM33.0491 5.90616L23.9062 15.049L25.5224 16.6652L34.6653 7.52241L33.0491 5.90616Z" fill="white"/>
<path d="M15 3H3V15H15V3Z" stroke="white" stroke-width="2" stroke-linejoin="round"/>
<path d="M15 21H3V33H15V21Z" stroke="white" stroke-width="2" stroke-linejoin="round"/>
<path d="M33 21H21V33H33V21Z" stroke="white" stroke-width="2" stroke-linejoin="round"/>
</svg>
