<svg width="40" height="40" viewBox="0 0 40 40" fill="none" xmlns="http://www.w3.org/2000/svg">
<g clip-path="url(#clip0_3_19991)">
<path d="M19.5 36C10.3871 36 3 28.6129 3 19.5C3 10.3871 10.3871 3 19.5 3C28.6129 3 36 10.3871 36 19.5C36 28.6129 28.6129 36 19.5 36ZM11.2715 29.8224C13.6071 31.6897 16.5097 32.7048 19.5 32.7C22.7505 32.7 25.7254 31.5252 28.0255 29.5782C26.9509 28.4756 25.6661 27.5997 24.2471 27.0022C22.8281 26.4048 21.3037 26.098 19.764 26.1C18.1678 26.0982 16.5886 26.4281 15.1266 27.0689C13.6647 27.7097 12.3518 28.6474 11.2715 29.8224ZM8.9664 27.453C10.3531 25.9813 12.0266 24.8092 13.8836 24.009C15.7407 23.2087 17.7419 22.7973 19.764 22.8C21.7137 22.7975 23.6447 23.1801 25.4462 23.9259C27.2476 24.6718 28.884 25.7661 30.2613 27.1461C31.6738 25.1581 32.508 22.8175 32.6712 20.3843C32.8345 17.951 32.3204 15.52 31.1861 13.3611C30.0518 11.2022 28.3416 9.39973 26.2451 8.15368C24.1487 6.90764 21.7481 6.26673 19.3096 6.30207C16.8711 6.3374 14.49 7.04759 12.4306 8.35385C10.3712 9.66011 8.71388 11.5114 7.64259 13.7022C6.5713 15.8931 6.1279 18.3379 6.36157 20.7655C6.59525 23.193 7.49687 25.5067 8.9664 27.453ZM19.5 21.15C17.7496 21.15 16.0708 20.4546 14.8331 19.2169C13.5954 17.9792 12.9 16.3004 12.9 14.55C12.9 12.7996 13.5954 11.1208 14.8331 9.88309C16.0708 8.64535 17.7496 7.95 19.5 7.95C21.2504 7.95 22.9292 8.64535 24.1669 9.88309C25.4046 11.1208 26.1 12.7996 26.1 14.55C26.1 16.3004 25.4046 17.9792 24.1669 19.2169C22.9292 20.4546 21.2504 21.15 19.5 21.15ZM19.5 17.85C20.3752 17.85 21.2146 17.5023 21.8335 16.8835C22.4523 16.2646 22.8 15.4252 22.8 14.55C22.8 13.6748 22.4523 12.8354 21.8335 12.2165C21.2146 11.5977 20.3752 11.25 19.5 11.25C18.6248 11.25 17.7854 11.5977 17.1665 12.2165C16.5477 12.8354 16.2 13.6748 16.2 14.55C16.2 15.4252 16.5477 16.2646 17.1665 16.8835C17.7854 17.5023 18.6248 17.85 19.5 17.85Z" fill="white"/>
</g>
<defs>
<clipPath id="clip0_3_19991">
<rect width="40" height="40" fill="white"/>
</clipPath>
</defs>
</svg>
