<svg width="37" height="34" viewBox="0 0 37 34" fill="none" xmlns="http://www.w3.org/2000/svg">
<path d="M31.0734 14.875C29.8123 14.875 28.6541 14.4434 27.7211 13.7328C27.4123 13.5004 27.1356 13.2414 26.8847 12.9492C26.6338 13.2348 26.3571 13.4937 26.0547 13.7262C25.1217 14.4434 23.9571 14.875 22.6895 14.875C21.4284 14.875 20.2767 14.45 19.3437 13.6863C19.0349 13.507 18.7518 13.2414 18.4944 12.9492C18.237 13.2414 17.9539 13.507 17.6451 13.6863C16.7121 14.45 15.5604 14.875 14.2993 14.875C13.0446 14.875 11.8864 14.45 10.9534 13.6863C10.6446 13.507 10.3615 13.2414 10.1105 12.9492C9.85317 13.2414 9.56363 13.507 9.25478 13.6863C8.32825 14.45 7.11861 14.8152 5.91604 14.875C5.91475 14.875 5.91411 14.875 5.91282 14.875C5.65159 14.875 5.38843 14.8551 5.13299 14.8219C1.57355 14.3305 -0.11062 10.0008 1.79296 6.89297L5.48173 0.871914C5.80987 0.330637 6.39604 0 7.02209 0H29.9796C30.6037 0 31.1892 0.33057 31.5174 0.871914L35.2042 6.89297C37.1152 10.0074 35.423 14.3305 31.8519 14.8219C31.601 14.8551 31.3436 14.8152 31.0798 14.875C31.0798 14.875 31.0798 14.875 31.0734 14.875ZM29.2847 3.1875H7.71699L4.40399 8.59961C4.03144 9.20391 3.99605 9.9543 4.25857 10.5984C4.5108 11.2094 4.96763 11.5813 5.53964 11.6609C5.66896 11.6809 5.79572 11.6875 5.91282 11.6875C6.67464 11.6875 7.3438 11.3488 7.81351 10.8109C8.39903 10.1469 9.17757 9.76172 10.1105 9.76172C10.9792 9.76172 11.8156 10.1469 12.4011 10.8109C12.8708 11.3488 13.54 11.6875 14.2993 11.6875C15.0649 11.6875 15.6762 11.3488 16.2038 10.8109C16.7893 10.1469 17.6193 9.76172 18.4944 9.76172C19.3695 9.76172 20.1995 10.1469 20.785 10.8109C21.2547 11.3488 21.9303 11.6875 22.6895 11.6875C23.4488 11.6875 24.118 11.3488 24.5877 10.8109C25.1732 10.1469 26.0032 9.76172 26.8783 9.76172C27.7469 9.76172 28.5833 10.1402 29.1689 10.8109C29.645 11.3488 30.3206 11.6875 31.0734 11.6875C31.2021 11.6875 31.3243 11.6809 31.453 11.6609C32.0321 11.5813 32.4889 11.2094 32.7399 10.5984C33.0037 9.90117 32.9715 9.21055 32.5983 8.59961L29.2847 3.1875ZM29.8251 22.3125V16.8937C30.2305 16.9668 30.6487 17 31.0734 17C31.4337 17 31.7812 16.9734 32.1222 16.927C32.341 16.8937 32.6562 16.8406 32.9136 16.7742V29.75C32.9136 32.0941 31.067 34 28.7957 34H8.206C5.93213 34 4.08806 32.0941 4.08806 29.75V16.7742C4.33707 16.8406 4.5938 16.8937 4.85825 16.927H4.86597C5.20441 16.9734 5.55701 17 5.91282 17C6.34392 17 6.76472 16.9602 7.17651 16.8937V22.3125H29.8251ZM29.8251 25.5H7.17651V29.75C7.17651 30.3344 7.63978 30.8125 8.206 30.8125H28.7957C29.3619 30.8125 29.8251 30.3344 29.8251 29.75V25.5Z" fill="white"/>
</svg>
