<svg width="20" height="20" viewBox="0 0 20 20" fill="none" xmlns="http://www.w3.org/2000/svg">
<circle cx="10" cy="10" r="10" fill="#7371FC"/>
<path d="M10.5004 4C8.83382 4.99401 7.16722 5.98803 5.50049 6.98204L5.50063 9.53819C6.80509 10.3163 8.10955 11.0943 9.41402 11.8722L10.8425 11.0203L6.9291 8.68638V7.834L9.07209 6.55585L10.5004 5.70405L15.5003 8.68609V6.9819L10.5004 4Z" fill="white"/>
<path d="M10.5001 4L15.5 6.9819V8.6858L9.07178 4.85195L10.5001 4Z" fill="white"/>
<path d="M9.07174 4.85156L10.5001 5.70337L5.5 8.68541L5.50028 6.98151L9.07174 4.85156Z" fill="white"/>
<path d="M9.07174 4.85156L10.5001 5.70337L5.5 8.68541L5.50028 6.98151L9.07174 4.85156Z" fill="white"/>
<path opacity="0.3" d="M10.0556 5.9685L10.5001 5.70337L9.07178 4.85156L10.0556 5.9685Z" fill="white"/>
<path d="M6.92875 7.83398V10.3903L5.50028 9.53832L5.5 8.68608L6.92875 7.83398Z" fill="white"/>
<path d="M6.92875 7.83398V10.3903L5.50028 9.53832L5.5 8.68608L6.92875 7.83398Z" fill="white"/>
<path opacity="0.45" d="M5.5 8.68608L6.92875 8.30508V7.83398L5.5 8.68608Z" fill="white"/>
<path d="M6.92896 8.6875L13.4187 12.5581L11.9286 13.4469L6.92896 10.3914V8.6875Z" fill="white"/>
<path opacity="0.25" d="M6.92896 8.6875V10.3914L7.32355 10.6267L6.92896 8.6875Z" fill="white"/>
<path d="M10.4999 15.9992C12.1667 15.0052 13.8331 14.0112 15.4999 13.0171L15.4997 10.461C14.1953 9.68289 12.8908 8.90492 11.5863 8.12695L10.1579 8.9789L14.0712 11.3128V12.1652L11.9283 13.4433L10.4999 14.2953L5.5 11.3132V13.0171L10.4999 15.9992Z" fill="white"/>
<path d="M10.4999 16.0004L5.5 13.0184V11.3145L11.9284 15.1484L10.4999 16.0004Z" fill="white"/>
<path d="M11.928 15.1484L10.4995 14.2965L15.4996 11.3145L15.4994 13.0184L11.928 15.1484Z" fill="white"/>
<path d="M11.928 15.1484L10.4995 14.2965L15.4996 11.3145L15.4994 13.0184L11.928 15.1484Z" fill="white"/>
<path opacity="0.3" d="M10.9441 14.0312L10.4995 14.2964L11.928 15.1483L10.9441 14.0312Z" fill="white"/>
<path d="M14.071 12.1676V9.61133L15.4994 10.4633L15.4997 11.3155L14.071 12.1676Z" fill="white"/>
<path d="M14.071 12.1676V9.61133L15.4994 10.4633L15.4997 11.3155L14.071 12.1676Z" fill="white"/>
<path opacity="0.45" d="M15.4997 11.3145L14.071 11.6954V12.1665L15.4997 11.3145Z" fill="white"/>
<path d="M14.0714 11.3139L7.58154 7.44334L9.07174 6.55469L14.0714 9.60999V11.3139Z" fill="white"/>
<path opacity="0.25" d="M14.0711 11.3142V9.61033L13.6765 9.375L14.0711 11.3142Z" fill="white"/>
</svg>
